<mxfile host="app.diagrams.net" modified="2024-03-15T20:55:27.781Z" agent="Mozilla/5.0 (Windows NT 10.0; Win64; x64) AppleWebKit/537.36 (KHTML, like Gecko) Chrome/122.0.0.0 Safari/537.36 Edg/122.0.0.0" etag="Q3ZIhaFADdfm_Pc2laXs" version="23.1.3" type="github">
  <diagram name="Página-1" id="v2f9a_HuWjPCcYGbEKfN">
    <mxGraphModel dx="1227" dy="452" grid="1" gridSize="10" guides="1" tooltips="1" connect="1" arrows="1" fold="1" page="0" pageScale="1" pageWidth="827" pageHeight="1169" background="none" math="0" shadow="0">
      <root>
        <mxCell id="0" />
        <mxCell id="1" parent="0" />
        <UserObject label="https://sellingpoint.claro.com.ec" link="https://sellingpoint.claro.com.ec/" id="UW74KRJwmyp60dVH0W7f-4">
          <mxCell style="text;whiteSpace=wrap;" vertex="1" parent="1">
            <mxGeometry x="-30" y="85" width="180" height="25" as="geometry" />
          </mxCell>
        </UserObject>
        <mxCell id="UW74KRJwmyp60dVH0W7f-11" value="&lt;div&gt;&lt;span data-canva-clipboard=&quot;ewAiAGEAIgA6ADUALAAiAGgAIgA6ACIAdwB3AHcALgBjAGEAbgB2AGEALgBjAG8AbQAiACwAIgBjACIAOgAiAEQAQQBGADYAUQBKAFgATABtAF8AMAAiACwAIgBpACIAOgAiAHgAdgBmAG4AaQBSAHoAeQA2AHoANgBWAGUAdgA4AGwAYwBoADEAQwBUAGcAIgAsACIAYgAiADoAMQA3ADEAMAA1ADMAMwA2ADIAMgA2ADYAMQAsACIAQQA/ACIAOgAiAEIAIgAsACIAQQAiADoAWwB7ACIAQQAiADoANgA3ADAALgAxADIAMQA4ADcAMAAwADAAMAAwADAAMAAyACwAIgBCACIAOgAxADAAOAAsACIARAAiADoAMQAzADQAOQAuADcAOQA2ADgANwA1ACwAIgBDACIAOgAyADEAOQAuADcANQA2ADIANgAsACIAQQA/ACIAOgAiAEsAIgAsACIAYQAiADoAewAiAEEAIgA6AFsAewAiAEEAPwAiADoAIgBBACIALAAiAEEAIgA6ACIALgAgAEUAdgBpAHQAYQByACAARABEAG8AUwAsACAAQwByAG8AcwBzAFMAaQB0AGUAIABTAGMAcgBpAHAAdABpAG4AZwAgAFwAbgAuACAARQB2AGkAdABhAHIAIABsAGEAIABjAHIAZQBhAGMAaQDzAG4AIABkAGUAIABWAFAATgAgAEYAaQBsAHQAcgBhAGQAbwAgAGQAZQAgAHAAYQBxAHUAZQB0AGUAcwAgAFwAbgAuACAAQwBEAE4AIABDAG8AbgB0AGUAbgB0ACAAZABlAGwAaQB2AGUAcgB5ACAAbgBlAHQAdwBvAHIAawAoAHIAZQBkAHUAYwBlACAAbABhAHQAZQBuAGMAaQBhACAAeQAgAGUAdgBpAHQAYQAgAEQARABvAFMAKQBcAG4ALgAgAEwAbwBhAGQAIABCAGEAbABhAG4AYwBpAG4AZwBcAG4AIgB9AF0ALAAiAEIAIgA6AFsAewAiAEEAPwAiADoAIgBBACIALAAiAEEAIgA6AHsAIgBmAG8AbgB0AC0AZgBhAG0AaQBsAHkAIgA6AHsAIgBCACIAOgAiAFkAQQBDAGcARQBWADkAbwB3AGsANAAsADAAIgB9ACwAIgBmAG8AbgB0AC0AcwBpAHoAZQAiADoAewAiAEIAIgA6ACIANAAxAC4AMgAxADgANwAiAH0ALAAiAHMAcABhAGMAaQBuAGcAIgA6AHsAIgBCACIAOgAiADAALgAwACIAfQAsACIAdABlAHgAdAAtAHQAcgBhAG4AcwBmAG8AcgBtACIAOgB7ACIAQgAiADoAIgBuAG8AbgBlACIAfQAsACIAbABlAGEAZABpAG4AZwAiADoAewAiAEIAIgA6ACIAMQA0ADAAMAAuADAAIgB9ACwAIgB0AHIAYQBjAGsAaQBuAGcAIgA6AHsAIgBCACIAOgAiADAALgAwACIAfQAsACIAYwBvAGwAbwByACIAOgB7ACIAQgAiADoAIgAjADUAOAA1ADgANQA4ACIAfQB9AH0ALAB7ACIAQQA/ACIAOgAiAEIAIgAsACIAQQAiADoAMQA2ADQAfQAsAHsAIgBBAD8AIgA6ACIAQQAiACwAIgBBACIAOgB7ACIAZgBvAG4AdAAtAGYAYQBtAGkAbAB5ACIAOgB7ACIAQQAiADoAIgBZAEEAQwBnAEUAVgA5AG8AdwBrADQALAAwACIAfQAsACIAZgBvAG4AdAAtAHMAaQB6AGUAIgA6AHsAIgBBACIAOgAiADQAMQAuADIAMQA4ADcAIgB9ACwAIgBzAHAAYQBjAGkAbgBnACIAOgB7ACIAQQAiADoAIgAwAC4AMAAiAH0ALAAiAHQAZQB4AHQALQB0AHIAYQBuAHMAZgBvAHIAbQAiADoAewAiAEEAIgA6ACIAbgBvAG4AZQAiAH0ALAAiAGwAZQBhAGQAaQBuAGcAIgA6AHsAIgBBACIAOgAiADEANAAwADAALgAwACIAfQAsACIAdAByAGEAYwBrAGkAbgBnACIAOgB7ACIAQQAiADoAIgAwAC4AMAAiAH0ALAAiAGMAbwBsAG8AcgAiADoAewAiAEEAIgA6ACIAIwA1ADgANQA4ADUAOAAiAH0AfQB9AF0AfQAsACIAYgAiADoAewAiAEEAIgA6AFsAMwA2ACwANQAwACwANgAxACwAMQA3AF0AfQAsACIAZAAiADoAIgBBACIALAAiAGcAIgA6AGYAYQBsAHMAZQAsACIAaAAiADoAIgBCACIAfQBdACwAIgBCACIAOgAxADkAMgAwACwAIgBDACIAOgAxADAAOAAwAH0A&quot;&gt;&lt;/span&gt;&lt;p&gt;. Evitar DDoS, CrossSite Scripting &#xa;. Evitar la creación de VPN Filtrado de paquetes &#xa;. CDN Content delivery network(reduce latencia y evita DDoS)&#xa;. Load Balancing&lt;/p&gt;&lt;/div&gt;" style="text;whiteSpace=wrap;html=1;" vertex="1" parent="1">
          <mxGeometry x="680" y="140" width="360" height="80" as="geometry" />
        </mxCell>
        <mxCell id="UW74KRJwmyp60dVH0W7f-12" value="&lt;div&gt;&lt;span data-canva-clipboard=&quot;ewAiAGEAIgA6ADUALAAiAGgAIgA6ACIAdwB3AHcALgBjAGEAbgB2AGEALgBjAG8AbQAiACwAIgBjACIAOgAiAEQAQQBGADYAUQBKAFgATABtAF8AMAAiACwAIgBpACIAOgAiAHgAdgBmAG4AaQBSAHoAeQA2AHoANgBWAGUAdgA4AGwAYwBoADEAQwBUAGcAIgAsACIAYgAiADoAMQA3ADEAMAA1ADMAMwA2ADIAMgA2ADYAMQAsACIAQQA/ACIAOgAiAEIAIgAsACIAQQAiADoAWwB7ACIAQQAiADoAMwA3ADkALgAwADQAMAAyADcAMQAyADgAMgA3ADAANwA0ACwAIgBCACIAOgA2ADUAMQAuADUAMQAwADUAMAAyADcAMAAxADIAMAAxADkALAAiAEQAIgA6ADEAMQAxACwAIgBDACIAOgA0ADgALgA3ADUANgAyADYALAAiAEEAPwAiADoAIgBLACIALAAiAGEAIgA6AHsAIgBBACIAOgBbAHsAIgBBAD8AIgA6ACIAQQAiACwAIgBBACIAOgAiAFcAQQBGAFwAbgAiAH0AXQAsACIAQgAiADoAWwB7ACIAQQA/ACIAOgAiAEEAIgAsACIAQQAiADoAewAiAGMAbwBsAG8AcgAiADoAewAiAEIAIgA6ACIAIwA1ADgANQA4ADUAOAAiAH0ALAAiAGYAbwBuAHQALQBmAGEAbQBpAGwAeQAiADoAewAiAEIAIgA6ACIAWQBBAEQANQBqAGQAbgBrAEYAeABjACwAMAAiAH0ALAAiAGYAbwBuAHQALQBzAGkAegBlACIAOgB7ACIAQgAiADoAIgA0ADEALgAyADEAOAA3ACIAfQAsACIAdAByAGEAYwBrAGkAbgBnACIAOgB7ACIAQgAiADoAIgAwAC4AMAAiAH0ALAAiAGwAZQBhAGQAaQBuAGcAIgA6AHsAIgBCACIAOgAiADEANAAwADAALgAwACIAfQAsACIAZABpAHIAZQBjAHQAaQBvAG4AIgA6AHsAIgBCACIAOgAiAGwAdAByACIAfQAsACIAdABlAHgAdAAtAGEAbABpAGcAbgAiADoAewAiAEIAIgA6ACIAYwBlAG4AdABlAHIAIgB9AH0AfQAsAHsAIgBBAD8AIgA6ACIAQgAiACwAIgBBACIAOgA0AH0ALAB7ACIAQQA/ACIAOgAiAEEAIgAsACIAQQAiADoAewAiAGMAbwBsAG8AcgAiADoAewAiAEEAIgA6ACIAIwA1ADgANQA4ADUAOAAiAH0ALAAiAGYAbwBuAHQALQBmAGEAbQBpAGwAeQAiADoAewAiAEEAIgA6ACIAWQBBAEQANQBqAGQAbgBrAEYAeABjACwAMAAiAH0ALAAiAGYAbwBuAHQALQBzAGkAegBlACIAOgB7ACIAQQAiADoAIgA0ADEALgAyADEAOAA3ACIAfQAsACIAdAByAGEAYwBrAGkAbgBnACIAOgB7ACIAQQAiADoAIgAwAC4AMAAiAH0ALAAiAGwAZQBhAGQAaQBuAGcAIgA6AHsAIgBBACIAOgAiADEANAAwADAALgAwACIAfQAsACIAZABpAHIAZQBjAHQAaQBvAG4AIgA6AHsAIgBBACIAOgAiAGwAdAByACIAfQAsACIAdABlAHgAdAAtAGEAbABpAGcAbgAiADoAewAiAEEAIgA6ACIAYwBlAG4AdABlAHIAIgB9AH0AfQBdAH0ALAAiAGIAIgA6AHsAIgBBACIAOgBbADQAXQB9ACwAIgBkACIAOgAiAEEAIgAsACIAaAAiADoAIgBCACIAfQBdACwAIgBCACIAOgAxADkAMgAwACwAIgBDACIAOgAxADAAOAAwAH0A&quot;&gt;&lt;/span&gt;&lt;p&gt;WAF&lt;/p&gt;&lt;/div&gt;" style="text;whiteSpace=wrap;html=1;" vertex="1" parent="1">
          <mxGeometry x="680" y="100" width="40" height="40" as="geometry" />
        </mxCell>
        <mxCell id="UW74KRJwmyp60dVH0W7f-29" value="" style="group" vertex="1" connectable="0" parent="1">
          <mxGeometry x="79.99999999999999" y="39" width="150" height="40" as="geometry" />
        </mxCell>
        <mxCell id="UW74KRJwmyp60dVH0W7f-28" value="" style="whiteSpace=wrap;html=1;" vertex="1" parent="UW74KRJwmyp60dVH0W7f-29">
          <mxGeometry width="150" height="40" as="geometry" />
        </mxCell>
        <mxCell id="UW74KRJwmyp60dVH0W7f-2" value="IP PUBLICA ASIGNADA&lt;br&gt;190.63.224.31" style="text;html=1;align=center;verticalAlign=middle;resizable=0;points=[];autosize=1;strokeColor=none;fillColor=none;labelBorderColor=none;spacing=0;" vertex="1" parent="UW74KRJwmyp60dVH0W7f-29">
          <mxGeometry width="150" height="40" as="geometry" />
        </mxCell>
        <mxCell id="UW74KRJwmyp60dVH0W7f-30" value="" style="group" vertex="1" connectable="0" parent="1">
          <mxGeometry x="62.99999999999994" y="200" width="313.00000000000006" height="65" as="geometry" />
        </mxCell>
        <mxCell id="UW74KRJwmyp60dVH0W7f-25" value="" style="whiteSpace=wrap;html=1;" vertex="1" parent="UW74KRJwmyp60dVH0W7f-30">
          <mxGeometry x="5.684341886080802e-14" width="183" height="60" as="geometry" />
        </mxCell>
        <mxCell id="UW74KRJwmyp60dVH0W7f-18" value="" style="whiteSpace=wrap;html=1;" vertex="1" parent="UW74KRJwmyp60dVH0W7f-30">
          <mxGeometry x="53.00000000000006" y="10" width="120" height="40" as="geometry" />
        </mxCell>
        <mxCell id="UW74KRJwmyp60dVH0W7f-5" value="10.32.81.48:7010-ICMP&#xa;10.32.81.49:7010-ICMP&#xa;10.32.81.50:7010-ICMP" style="text;whiteSpace=wrap;" vertex="1" parent="UW74KRJwmyp60dVH0W7f-30">
          <mxGeometry x="183.00000000000006" y="5" width="130" height="50" as="geometry" />
        </mxCell>
        <mxCell id="UW74KRJwmyp60dVH0W7f-7" value="Commercial Reverse Proxy" style="text;whiteSpace=wrap;align=center;" vertex="1" parent="UW74KRJwmyp60dVH0W7f-30">
          <mxGeometry x="73.00000000000006" y="10" width="100" height="40" as="geometry" />
        </mxCell>
        <mxCell id="UW74KRJwmyp60dVH0W7f-14" value="F5" style="text;html=1;align=center;verticalAlign=middle;resizable=0;points=[];autosize=1;strokeColor=none;fillColor=none;" vertex="1" parent="UW74KRJwmyp60dVH0W7f-30">
          <mxGeometry x="53.00000000000006" y="15" width="40" height="30" as="geometry" />
        </mxCell>
        <mxCell id="UW74KRJwmyp60dVH0W7f-22" value="" style="group" vertex="1" connectable="0" parent="UW74KRJwmyp60dVH0W7f-30">
          <mxGeometry y="5" width="53.33000000000004" height="60" as="geometry" />
        </mxCell>
        <mxCell id="UW74KRJwmyp60dVH0W7f-23" value="DMZ" style="text;html=1;align=center;verticalAlign=middle;resizable=0;points=[];autosize=1;strokeColor=none;fillColor=none;" vertex="1" parent="UW74KRJwmyp60dVH0W7f-22">
          <mxGeometry x="3.330000000000041" y="30" width="50" height="30" as="geometry" />
        </mxCell>
        <mxCell id="UW74KRJwmyp60dVH0W7f-24" value="" style="shape=image;verticalLabelPosition=bottom;labelBackgroundColor=default;verticalAlign=top;aspect=fixed;imageAspect=0;image=data:image/png,iVBORw0KGgoAAAANSUhEUgAAB4AAAAQ4CAYAAADo08FDAAAACXBIWXMAAA7EAAAOxAGVKw4bAAAAPHRFWHRDb21tZW50AHhyOmQ6REFGNlFKWExtXzA6MTQsajo0NDEwNTcxNzIxMDA5MTM0NjcyLHQ6MjQwMzE1MjAQsBwfAAAE/WlUWHRYTUw6Y29tLmFkb2JlLnhtcAAAAAAAPHg6eG1wbWV0YSB4bWxuczp4PSdhZG9iZTpuczptZXRhLyc+CiAgICAgICAgPHJkZjpSREYgeG1sbnM6cmRmPSdodHRwOi8vd3d3LnczLm9yZy8xOTk5LzAyLzIyLXJkZi1zeW50YXgtbnMjJz4KCiAgICAgICAgPHJkZjpEZXNjcmlwdGlvbiByZGY6YWJvdXQ9JycKICAgICAgICB4bWxuczpkYz0naHR0cDovL3B1cmwub3JnL2RjL2VsZW1lbnRzLzEuMS8nPgogICAgICAgIDxkYzp0aXRsZT4KICAgICAgICA8cmRmOkFsdD4KICAgICAgICA8cmRmOmxpIHhtbDpsYW5nPSd4LWRlZmF1bHQnPmJyb3duZmllbGQuZHJhd2lvIC0gMjwvcmRmOmxpPgogICAgICAgIDwvcmRmOkFsdD4KICAgICAgICA8L2RjOnRpdGxlPgogICAgICAgIDwvcmRmOkRlc2NyaXB0aW9uPgoKICAgICAgICA8cmRmOkRlc2NyaXB0aW9uIHJkZjphYm91dD0nJwogICAgICAgIHhtbG5zOkF0dHJpYj0naHR0cDovL25zLmF0dHJpYnV0aW9uLmNvbS9hZHMvMS4wLyc+CiAgICAgICAgPEF0dHJpYjpBZHM+CiAgICAgICAgPHJkZjpTZXE+CiAgICAgICAgPHJkZjpsaSByZGY6cGFyc2VUeXBlPSdSZXNvdXJjZSc+CiAgICAgICAgPEF0dHJpYjpDcmVhdGVkPjIwMjQtMDMtMTU8L0F0dHJpYjpDcmVhdGVkPgogICAgICAgIDxBdHRyaWI6RXh0SWQ+MzUwYmU2YzUtMjI2OS00YmEyLThjZmEtMjZmOTg0NjUwNzI5PC9BdHRyaWI6RXh0SWQ+CiAgICAgICAgPEF0dHJpYjpGYklkPjUyNTI2NTkxNDE3OTU4MDwvQXR0cmliOkZiSWQ+CiAgICAgICAgPEF0dHJpYjpUb3VjaFR5cGU+MjwvQXR0cmliOlRvdWNoVHlwZT4KICAgICAgICA8L3JkZjpsaT4KICAgICAgICA8L3JkZjpTZXE+CiAgICAgICAgPC9BdHRyaWI6QWRzPgogICAgICAgIDwvcmRmOkRlc2NyaXB0aW9uPgoKICAgICAgICA8cmRmOkRlc2NyaXB0aW9uIHJkZjphYm91dD0nJwogICAgICAgIHhtbG5zOnBkZj0naHR0cDovL25zLmFkb2JlLmNvbS9wZGYvMS4zLyc+CiAgICAgICAgPHBkZjpBdXRob3I+RUZSRU4gUEFUUklDSU8gR0FMQVJaQSBDSEFWRVo8L3BkZjpBdXRob3I+CiAgICAgICAgPC9yZGY6RGVzY3JpcHRpb24+CgogICAgICAgIDxyZGY6RGVzY3JpcHRpb24gcmRmOmFib3V0PScnCiAgICAgICAgeG1sbnM6eG1wPSdodHRwOi8vbnMuYWRvYmUuY29tL3hhcC8xLjAvJz4KICAgICAgICA8eG1wOkNyZWF0b3JUb29sPkNhbnZhPC94bXA6Q3JlYXRvclRvb2w+CiAgICAgICAgPC9yZGY6RGVzY3JpcHRpb24+CiAgICAgICAgCiAgICAgICAgPC9yZGY6UkRGPgogICAgICAgIDwveDp4bXBtZXRhPgly0xEAAIs0SURBVHic7N09ix11HIbhe41FDL5rE7CKQQixELEQK0EiIfgGYuFXED+BpZ3gV9BesBGFLdROBKs0omBhZ6G9YGmxKUQ05+w5Or+zs9cF09/VFPPMf+YoAOCQ3V/dqF6onqyu3LkemIwCAAAAzpxfqp/vXD9UX1a3R4sA+F8cTQcAAP/oneqt6sXhDgAAAGC9fqu+qD6sfhxuAeA/YgAGgMPyRvVB9dR0CAAAAHCufFy9V/06HQLAfgzAAHAYHqs+qV6aDgEAAADOrT+qd6uPpkMA2N2F6QAAoOvVN9Uz0yEAAADAuXZv9VonL6ofD7cAsCMngAFg1svVZ9XF6RAAAACAv/iqujEdAcDpOQEMAHOuVV9Xl6ZDAAAAAP7mSifPLj6dDgHgdAzAADDjkerb6vHpEAAAAIB/8XT1eyfPMAA4I3wCGgBmfF69Mh0BAAAAsIXnq++mIwDYjgEYAJZ3szqejgAAAADY0u3q2ekIALbjE9AAsLzj6tHpCAAAAIAtXa5+qr6fDgFgs3umAwDgnHm7ujodAQAAAHBK708HALAdAzAALOvN6QAAAACAHVytrk1HALCZARgAlnVrOgAAAABgR69PBwCwmQEYAJbzXHXfdAQAAADAjl6dDgBgMwMwACzniekAAAAAgD1cnw4AYDMDMAAs5+HpAAAAAIA9PFRdmI4A4O4MwACwHAMwAAAAcNb5vRXAgTMAA8ByHpwOAAAAANjTxekAAO7OAAwAyzmaDgAAAADYk10B4MC5UQMAAAAAAACshAEYAAAAAAAAYCUMwAAAAAAAAAArYQAGAAAAAAAAWAkDMAAAAAAAAMBKGIABAAAAAAAAVsIADAAAAAAAALASBmAAAAAAAACAlTAAAwAAAAAAAKyEARgAAAAAAABgJQzAAAAAAAAAACthAAYAAAAAAABYCQMwAAAAAAAAwEoYgAEAAAAAAABW4k8AAAD//+zcoU1FYRCE0SGgKIFysHgsmmJoAE9oAByCNrCvCIIgufibm2eXzH9OBaPWfMkKwAAAAAAAAAAlBGAAAAAAAACAEgIwAAAAAAAAQImr6QEAwKjXJM/TI2BBl0k+pkcceEryNj0CFvSY5H56xM6W5HZ6BCzqJcnN9IidU5KH6RGwqPck19MjdrbpAQCcJwADwNpOST6nRwD/xlfcBJhwNz3gwBb3AKb8TA848B03Aab8Tg84cDE9AIDzvIAGAAAAAAAAKCEAAwAAAAAAAJQQgAEAAAAAAABKCMAAAAAAAAAAJQRgAAAAAAAAgBICMAAAAAAAAEAJARgAAAAAAACghAAMAAAAAAAAUEIABgAAAAAAACghAAMAAAAAAACUEIABAAAAAAAASgjAAAAAAAAAACUEYAAAAAAAAIASAjAAAAAAAABACQEYAAAAAAAAoIQADAAAAAAAAFBCAAYAAAAAAAAoIQADAAAAAAAAlBCAAQAAAAAAAEoIwAAAAAAAAAAlBGAAAAAAAACAEgIwAAAAAAAAQAkBGAAAAAAAAKCEAAwAAAAAAABQQgAGAAAAAAAAKCEAAwAAAAAAAJQQgAEAAAAAAABKCMAAAAAAAAAAJQRgAAAAAAAAgBICMAAAAAAAAECJPwAAAP//7NmBDAAAAMAgf+t7fKWRAAYAAAAAAACYEMAAAAAAAAAAEwIYAAAAAAAAYEIAAwAAAAAAAEwIYAAAAAAAAIAJAQwAAAAAAAAwIYABAAAAAAAAJgQwAAAAAAAAwIQABgAAAAAAAJgQwAAAAAAAAAATAhgAAAAAAABgQgADAAAAAAAATAhgAAAAAAAAgAkBDAAAAAAAADAhgAEAAAAAAAAmBDAAAAAAAADAhAAGAAAAAAAAmBDAAAAAAAAAABMCGAAAAAAAAGBCAAMAAAAAAABMCGAAAAAAAACACQEMAAAAAAAAMCGAAQAAAAAAACYEMAAAAAAAAMCEAAYAAAAAAACYEMAAAAAAAAAAEwIYAAAAAAAAYEIAAwAAAAAAAEwIYAAAAAAAAIAJAQwAAAAAAAAwIYABAAAAAAAAJgQwAAAAAAAAwIQABgAAAAAAAJgQwAAAAAAAAAATAhgAAAAAAABgIgAAAP//7NmBDAAAAMAgf+t7fKWRAAYAAAAAAACYEMAAAAAAAAAAEwIYAAAAAAAAYEIAAwAAAAAAAEwIYAAAAAAAAIAJAQwAAAAAAAAwIYABAAAAAAAAJgQwAAAAAAAAwIQABgAAAAAAAJgQwAAAAAAAAAATAhgAAAAAAABgQgADAAAAAAAATAhgAAAAAAAAgAkBDAAAAAAAADAhgAEAAAAAAAAmBDAAAAAAAADAhAAGAAAAAAAAmBDAAAAAAAAAABMCGAAAAAAAAGBCAAMAAAAAAABMCGAAAAAAAACACQEMAAAAAAAAMCGAAQAAAAAAACYEMAAAAAAAAMCEAAYAAAAAAACYEMAAAAAAAAAAEwIYAAAAAAAAYEIAAwAAAAAAAEwIYAAAAAAAAIAJAQwAAAAAAAAwIYABAAAAAAAAJgQwAAAAAAAAwIQABgAAAAAAAJgQwAAAAAAAAAATAhgAAAAAAABgIgAAAP//7NvPq+VzHMfx55SFSEpTN3PDmEhRFpSl4g+wQfwBSvZiFFFWFnYW/gQp0mRrVvMHmMJCKHGlqRsW8mOBxQy5uXPu7fie72fOOY9Hne3r/Vqe73mdrwEYAAAAAAAAYEMYgAEAAAAAAAA2hAEYAAAAAAAAYEMYgAEAAAAAAAA2hAEYAAAAAAAAYEMYgAEAAAAAAAA2hAEYAAAAAAAAYEMYgAEAAAAAAAA2hAEYAAAAAAAAYEMYgAEAAAAAAAA2xInRBQBgi7xavTa6xBb6ovrqyufj6sNqb2ij5TxTPV2dqU5WN+bPfAAAAMxvp7o0ugQAV3fd6AIAACt215XPv31anaverPZnb3R8z1Znqzvyxz0AAAAA4Bi8NQIAbKP7qpeqL6sXBnc5zCPVt9Xb1emMvwAAAADAMRmAAYBtdnP1RvV19eDgLn/7qDpf7Y4uAgAAAACsHwMwAEDdXl2onhzY4Zbq++rRgR0AAAAAgDVnAAYAuOz66t3q5QG376z2qp0BtwEAAACADWIABgA46PXqqZlvXuzyAA0AAAAA8L8YgAEA/uud6qGZbn1e3TTTLQAAAABgwxmAAQAO9351w4pvvFXdveIbAAAAAMAWMQADABxutzq7wvyT1XMrzAcAAAAAtpABGADg6l6pTq0o+718FwMAAAAAJuZHRwCAxV5cQeZO9fAKcgEAAACALWcABgBY7IkVZD6/gkwAAAAAAAMwAMARTlUPTJz5+MR5AAAAAACVARgA4Dgemzjv9MR5AAAAAACVARgA4DjunTDr/urEhHkAAAAAAP8wAAMAHO22CbPumTALAAAAAOAAAzAAwNGmHIDPTJgFAAAAAHCAARgA5vPH6AIsbXfCrFsnzAIAAIC5/Tm6AACLGYABYD4/ji7A0i5NmPXzhFkAAAAwt99GFwBgMQMwAMxnf3QBlrY3YdYPE2YBAADA3H4dXQCAxQzAADAfw9/6+m7CLG+CAwAAsM5+H10AgMUMwAAwn29GF2Bpn02Y9cuEWQAAADCni6MLAHA0AzAAzOeT6qfRJVjKudEFAAAA4Brg+RhgDRiAAWBeHpTWz351YXQJAAAAuAZ8MLoAAEf7CwAA///s3THo53Mcx/GnUiI5i81gIDEZKGVhdLIYJGSQZGIxiAULJSkWSt1ASepQR2QxyEZOVyLuXNwZdAxXiMLwo3R3+N+f/u/f//t/POq7P/sNv/r+Xp/v92cABoCt5UZp+9k7HQAAAABr4HD14XQEAP/OAAwAW2tvdXA6gtPy2HQAAAAArIHHpwMA2BgDMABsvQemA9iw56tD0xEAAAAw7FD17HQEABtjAAaArfdKtX86gg15ZDoAAAAA1sBD0wEAbJwBGABm3F79OB3BP7qz+no6AgAAAIbtq16ajgBg4wzAADDjQHXrdAR/6+lqz3QEAAAADPu4unk6AoDTYwAGgDmvVQ9OR3CSt6r7piMAAABg2JFqd95gBrDtGIABYNZjrV41zHp4rrp+OgIAAACGfVBd1WoEBmCbMQADwLw91TXVsemQHe6O6p7pCAAAABj2cnVl9c10CACbYwAGgPXwfnVp9cx0yA60r9Vn/8J0CAAAAAz6pLqxumU6BID/xgAMAOvjWHVvdUn16nDLTvBedW2rm9vPZlMAAABgzKfVXdXlrQ5JA7DNnTkdAACc5PPqpurs6rpqd3V1dXG1a7BrO/upOlh91Opm9u3qu9EiAAAAmPFldaB6p3qj+mK0BoD/nQEYANbXj9Wbf1x/2tXqCeFzR4q2n59b3dgeHe74qzOmA07h++rR6Qg25fw/ruP5H/Ht6uHW73DP0eqJ6Qg25YLqnFaHnI4Pt7A5T00HnMLr1bvTEZy2s1p9J/xafVv9MpvDJlxW3T0dcYIfqhumI9i036ojrQ6dA7Bw6/gDJADAkt1WvTgdcYLD1UXTEbBDfVVdOB1xgv3VFdMRsEP9Nh1wCvdXT05HwA60u9WTmevkeHXedAQA8O/8BzAAAAAAAADAQhiAAQAAAAAAABbCAAwAAAAAAACwEAZgAAAAAAAAgIUwAAMAAAAAAAAshAEYAAAAAAAAYCEMwAAAAAAAAAALYQAGAAAAAAAAWAgDMAAAAAAAAMBCGIABAAAAAAAAFsIADAAAAAAAALAQBmAAAAAAAACAhTAAAwAAAAAAACyEARgAAAAAAABgIQzAAAAAAAAAAAthAAYAAAAAAABYCAMwAAAAAAAAwEIYgAEAAAAAAAAWwgAMAAAAAAAAsBAGYAAAAAAAAICFMAADAAAAAAAALMTvAAAA///s2bEJQlEABMETbMBCLMLihd+PDZgamzxYZsKLLl8BGAAAAAAAACBCAAYAAAAAAACIEIABAAAAAAAAIgRgAAAAAAAAgAgBGAAAAAAAACBCAAYAAAAAAACIEIABAAAAAAAAIgRgAAAAAAAAgAgBGAAAAAAAACBCAAYAAAAAAACIEIABAAAAAAAAIgRgAAAAAAAAgAgBGAAAAAAAACBCAAYAAAAAAACIEIABAAAAAAAAIgRgAAAAAAAAgAgBGAAAAAAAACBCAAYAAAAAAACIEIABAAAAAAAAIgRgAAAAAAAAgAgBGAAAAAAAACBCAAYAAAAAAACIEIABAAAAAAAAIgRgAAAAAAAAgAgBGAAAAAAAACBCAAYAAAAAAACIEIABAAAAAAAAIgRgAAAAAAAAgAgBGAAAAAAAACBCAAYAAAAAAACIEIABAAAAAAAAIgRgAAAAAAAAgAgBGAAAAAAAACDifvoAAAAA8LfHtte257bbz/7Z9t52nTgFAADAOV8AAAD//+zdTajldR3H8be761UwpqCQqGAgK4xChCQqMh+wCOyBiBatemCCoFYRWCQphquCqMFaFK0icjSypkmzIWmRA1GbCmpRBEktooSwhWGLw4VbTN07c+8933POfb3Wl//vPZtZnM/5/44BGAAAANbL66r3VbdU1+/xt/+oflKdq75e/f1IywAAABjnCmgAAABYD++sftHird6Ptff4W3VV9dbqC9XfqtPV848qEAAAgHkGYAAAAFhtr6geq85Urzngs05Vv68+ecDnAAAAsKIMwAAAALC67ql+3eK658NydfW56jfVqw7xuQAAAKwAAzAAAACsnq3qbPWpIzzjuupCiyuiAQAA2BAGYAAAAFg936nuWMI529X3l3QWAAAAS2AABgAAgNXyxer2JZ/5UHX9ks8EAADgCBiAAQAAYHXcX3104Nyt6onqlQNnAwAAcIgMwAAAALAaTlWfGDz/eS2ug37BYAMAAAAHZAAGAACAeXdUp6cjqpdV56orhzsAAAC4TAZgAAAAmHVTdWY6Ypcbqm9NRwAAAHB5DMAAAAAw52R1ttV74/bt1QPTEQAAAFw6AzAAAADMeGH1eIvf3l1FH67umo4AAADg0hiAAQAAYPlOVI9WL5kO2cO91QenIwAAANg/AzAAAAAs1zXV+erVwx379dXq/dMRAAAA7I8BGAAAAJbn6hbXPq/L+LvjG9V7pyMAAADYmwEYAAAAlmO7xbXPN0yHXKZvVu+YjgAAAOD/MwADACzXFdMBAHt4bjpgQ21VZ6ubpkMO6KHq1ukIlsr/CQAAsGYMwAAAy+VDVGC3p6cDLuKv0wEb6rvVm6YjDskm/VvYmy+vAQDAmjEAAwAAzPnzdMBF/GE6YAN9r816a3bnbWYjMAAAwAoyAAMAAMz543TARfxuOmDD/LB623TEEdhuMQK/ZToEAACA/2QABgBYLtcoArv9ajrgIn4+HbBBflzdNh1xhLZbvN1sBAYAAFghBmAAgOXyG8DAbvdPB/yXZ6sfTEdsgO3q8erNwx3LsNViBL5lOgQAAIAFAzAAAMCsP00H7PLL6YANsF2dq26eDlmireqRvAkMAACwEgzAAAAAsx6ZDtjla9MBa25n/H3DdMiAnTeBjcAAAADDDMAAAACzPt1qXA//z+pL0xFr7DiPvzuMwAAAACvAAAwAADDrL9WD0xHVfdMBa+yqFr+dfJzH3x0710H7TWAAAIAhBmAAAIB576n+NXj+09U9g+evsxPV+eqNwx2r5Mrqsepd0yEAAADHkQEYAGC5rpgOAFbWvYNnf2Dw7HX24urJ6sbpkBX1YPWh6QgObBWuqAcAAC6BARgAYLl8iAr8L3e3eGty2T5bfXvg3HV3XXWhOjkdsuK+Un1mOoID8eU1AABYMwZgAACA1XFb9dQSzzufce5yvL76WfWi6ZA1cXf15ekIAACA48IADAAAsFqurX67hHMerW5ewjmb5s7qp9U10yFr5iPVw9XWdAgAAMCmMwADAACsnpdXZ47w+XdVtx/h8zfVzojJ5bmzeqI6MR0CAACwyQzAAADL5Xf0gP16d3WqeuYQn/lUdWt13yE+87j4fK4xPgw3Vk9WL50OYd+emw4AAAAujQEYAGC5fIgKXIoHqu3qdPXsAZ7zTIu3V6+tfnQIXcfNw9XHpyM2yMnqQvXa6RD2xZfXAABgzfwbAAD//+zdfcxWZR3A8S+FmwgihJqNpzRCDUHbogApXgQUcRaWL0AQyxXanJgtKzP4R2VGYDZtmlC2RApp08wUEI2kFxA1yggYkLO0GQIOaDqtIf1xPYQ9PeFzP5xzfuc+5/vZ7jF5OecLgz239+9c1+UAWJIkSZLK7wrgCOAqYC0dWxW8B1gBXEIaIn83t7rq6k36854YHVJBx5HOUh4fHSJJkiRJVdM1OkCSJKlmXEUj6XDc1vo6YBDwHqAvsA94AXgO2FJ4WfX0A1a2fqt8HAUsBy4DFga3lMV+yvdeYW90gFRTZdw5qIxNkiSpHQ6AJUmSiuWHJpKytKH1pWwNBZaRVgArfwuAgbjNNqSt3o+IjmhjU3SAVFNlexgEytkkSZLa4RbQkiRJkiQdNJm07bPD32J9AXgQODI6JNgr0QHt+HV0gCRJkqTGOACWJEmSJCmZDfw4OqLGzicNG98ZHRJoT3RAG29EB0iSJElqnANgSZIkSZJgKXB9dIQYDDwNnBYdEuQP0QFt7IoOkCRJktQ4B8CSJEmSpDrrA6wDLo4O0X/0BZ4AxkeHBLg5OqCNFdEBkiRJkhrnAFiSJEmSVFf9gfXAh6ND9D96AMuBmdEhBVsNvB4d8SauipckSZKakANgSZIkSVIdjSJtNfzu6BAd0q3AguiIgq2JDmi1G9gaHSFJkiSpcQ6AJUmSJEl180Xgl0DP4A51zAzgEaBXdEhBpgP7oyOAr0cHSJIkSeocB8CSJEmSpDq5B/hWdEROtgNzoyNycjZpu+4PRIcU4HlgZXDDTuD24AZJkiRJneQAWJIkSZJUBycCvwemRofkZAfwUeBaYHZwS15OIm2PPCm4owhTgDcC739l4L0lJWXYCaCtMjZJkqR2OACWJEmSJFXdGNLwt6qrR18GRgLbWv/7RmBOXE6uugFLqO4q7gNeBj4XdO/7gHuD7i3poC7RAe0oY5MkSWqHA2BJkiRJUpVdCzxGdc+P3QGMAja3+f5ZpEFwVR04x7lPcEeefgB8r+B7PgdcWPA9JUmSJGXMAbAkSZIkqYq6Aw8DN0WH5Oh5YAiw4f/8+GzSoLSqRpFWdg+ODsnRDGBVQffaAby3oHtJkiRJypEDYEmSJElS1ZwMrAcmRIfkaBswlLRi81C+DXw295o4LcBTpEFpVY0B7sj5HuuA43O+hyRJkqSCOACWJEmSJFXJRcDvSEPgqtoAnAm82MGffxcwLb+cUlhA+n1W1RXAZ4B9GV93P/Ad0sMEksplf3RAO8rYJEmS2uEAWJIkSZJUFfOBnwA9okNytJm0InRng79uMTA9+5xSuZS0GrglOiQnPwSOBR4hmyHMBuBUYGYG15KUvS7RAe0oY5MkSWqHA2BJkiRJUrM7DvgN8KXokJxtA0aSzmrtjEXAZdnllNJg0rnAY6JDcrIbGE8a3K4BXm/w1+8D/kT68zkd2JppnSRJkqRScAAsSZIkSWpmZwPPAMOjQ3K2FRhB54e/BywELj/8nFLrAzwGzIkOydFW0t/5I4FhwBJgI7AL+Ffrz9lHGhhvBX4GfALoCgwCVhXcK6lxZdxuuYxNkiSpHW7bIUlSufUgfbA9HHgf0K/1dXRklCR1wA7g2dbXFuAXwOrQIlXRrdRj+9qNpJW/uzK85lTgngyvV1brSedCPxsdIuWsG3AW6UGRkzn4/w3HREapcv4B9AxuGEHaxeAUDv49Pz60qLn8jYPv0TcCK0lfKyVJFeMAWJKkcroCuBgYHdwhSVnaQ/qQ6U7g0eAWNbfTgXuBAdEhBXgaGEdayZm1icBPc7hu2bwKXE1a/SxVSX9gQutrNGkILOUpagA8Fvg86eFoH2rI3kvAz4H5wKbgFklSRhwAS5JULhcAc0lPM0tSlS0jndfqh0xq1DXAvOiIgvyKNNh5Jcd7TAAezvH6ZbIcmEa2K6mlKOOAW0hbektFKXoAPAC4mfS1SsW4C7gO2B4dIkk6PA6AJUkqhz6klUxjo0MkqWDfBL4aHaGm0BdYRNritA7uAy4s6F4jgQeJ39azCNuB6cAj0SFSJw0iDX7HRYeoloocAM8FvlLQvfTfXgOuBL4fHSJJ6jwHwJIkxRtIWpHSEh0iSUEeBqYAe6NDVFqfJH0I2Ss6pCB3kI6DKNJA0tbsJxR83yi3AVdFR0gNOhFYAZwaHaLaKmIA3BO4n3TOr2L5tVKSmpgDYEmSYp0DPAAcGR0iScE2k1Yh7ogOUan0AG4HPh0dUqCvAd8IuncLaQhcl+HSJmAS8MfoEKkDxgBLSTsHSVHyHgC3AI8D/XK8hxrzKOnsZUlSk3EALElSnAHAk0D36BBJKol1wNDoCJXGMGAJacVbXUwDFgc39AIeAoYHdxTpy8D86AjpEFqA9cCx0SGqvTwHwN2AtcAZOV1fnXcvMDk6QpLUmLdFB0iSVFO9SWfPOfyVpIOGkAZ+0hxgDfUZ/r4KjCZ++AuwG/gIsCw6pEDzSCvO6rL9tZpLN9JDGQ5/VXVLcfhbVpOAa6IjJEmNcQAsSVKMu/HMX0lqzyTg0ugIhTkZeAq4LjqkQC+RBq6PR4e0cR5wZ3REgUaStoS+KDpEamMRDsVUfTOB86MjdEjzcKceSWoqbgEtSVLxzqVeq2okqVE7gJNIqyJVH7OAG6IjCvZnYCzwl+iQQ5gNXB8dUbCHgBnAi9Ehqr3TgGeAt0eHSK3y2AK6N+nr4NEZX1fZWw98MDpCktQxvoGUJKl4y4B3REdIUol1J+1W9Fh0iAoxFHgUuCQ6pGBPkLZ9/ntwx1tZDbwAfDw6pECnAJcDe4Ang1tUb4uB/tER0pv8E7gp42vOA0ZkfE3l413AFmBDdIgk6a25AliSpGJNAX4UHSFJTeIYYG90hHLTnfQh8szokAAPAJOB16JDGnAWcD/p32WdrAWmA1ujQ1Q7Y0kPx0hlkvUK4BNwt4Vms410ZIckqeQ8A1iSpGJdGB0gSU3k3OgA5eYcYDP1HP7eCFxAcw1/AVYBQ4C/RocUbBhptdOs6BDVzsXRAVIBPhYdoIb1BwZER0iS3poDYEmSinVedIAkNZGJ0QHK3HGkLU1XAC3BLRGmks7UbVZbgMHAmuiQADcAm4Azo0NUC12o17brah5Zf5Z8QcbXUzF8jy5JTcABsCRJxfkQ0C06QpKaiKtCquVq0ja6n4oOCbATGE41joE48Hu5OzokwPuB3wILgV7BLaq2M0hnbUpl0zXDax2FD0g3K9+jS1IT+DcAAAD//+zde8zWdRnH8berPyAULVM8YB5QKTzgoYHpNOchiSzNTC0lc+JQMtNhkVkJSw01SJeUqWNOXY6pTUUytTSVmBjMMBUYihAiBxXwALi5Zn9cj8PIB33k99zX93f/3q/tHvDP9/7I4Hnw/vyu62sBLElS6zRx0kmSNsUWwE7ZIbTJDgBmA7+meffHAswiypx2m5o9HbggO0SS4cTDDGdkB1Hbcr2qSvWxCs/apcKz1Fp7ZQeQJH0wC2BJklrHSRFJ6joL4PraCriO9QVoE00mNoAszQ7STa4GDgNWZwdJ8GlgEjADGJCcRe1nu+wAUic2q/CsPhWepdbakmofBpAkdQMLYEmSWscCWJK6zgK4nk4n7osdkR0k0fnAKdkhWuAxYD/gmewgSQYR/+2/ItaZSlXYJTuA1IkqC+BtKzxLref1VpJUOAtgSZJap3d2AEmqIadD6mUv4FHgJmCb3ChpXgMOB65JztFKi4DBwF3ZQRKNIh56ODU7iNqCE8AqVZUFsA9I11uP7ACSpI2zAJYkqXWq/J9lSWqKV7MD6EP5FPA74Gng0OQsmeYBA4FHsoMkWAN8HRibHSTRjsCtwDS8H1GbZmF2AKkTb1d41isVnqXWs1eQpML5hVqSJElSyZZkB9AHOheYD5ydHSTZ/cCBxDRsk40BjgfWJufIdAjxMMRE4p5EqauWZQeQOrGmwrNeqvAsSZK0AQtgSZIkSSXzw8FyvVty/YaYAG6yy4AhVPvBeJ3dTayEXpwdJNlI4Hl8OEJdZwGsUq2s8KylFZ4lSZI2YAEsSZIkqVRriTs1VZa+wGRccwvwBjAU+Gl2kAI9DewPPJQdJNnWrF+PPjg5i+pjdnYAqRPzKzxrIfBmheeptd7JDiBJ2jgLYEmSJEmluj87gP7HJ4EriFL+pOQsJZhD3Pd7X3aQgr0KHAmMyw5SgL2Ax4E7gT2Ts6h8c3CdvMp0bcXn+T20vjbLDiBJ2jgLYEmSJEmluis7gADoAYwmVtn+COiZG6cIdxD3/b6QHaQmLgK+iiuyAU4A5gE3ADskZ1HZ/pwdQNrA28DUis+8u+LzJElSBwtgSZIkSaWakh1AnEUUv+OICWDB+cA3gXXZQWrmXqI0n5cdpBDDgeeIqXr/bun93J4dQNrAP7vhzKoLZbWOK6AlqXAWwJIkSZJKNBFYlR2iwU4E5gLX45Tiu5YCnweuyQ5SY/OIEvgP2UEK0ZOYql9ATNn3yI2jwvwVeDQ7hPQe3+uGM1cT/+ZT/bgCWpIKZwEsSZIkqTRvAb/IDtFQxwIzicmz/slZSnIvcYfrrOwgbWANcCowgvi7LtiKmLJfAJyTnEVluSQ7gNRhFvCPbjr7Uvx+IElS5SyAJUmSJJVmArA8O0TDHEd8sDuFmNDUeqOI+2udSK/W9cABwJzsIAXZHvgt8CJwHk4EC/4GPJIdQo33DvCtbjx/GW7XkCSpchbAkiRJkkryFDEJotY4CZgN3EWsN9Z6i4nfkwnZQdrYHFwJ/X52JMqQhcCFxKpoNdcw4OXsEGq0ccD8bn6PscDT3fwekiQ1igWwJEmSpFK8AhwDrMsO0gDDiPJtMrBvcpYS/RHYG1c+t8I6YiX0MOCN5Cyl6QNcRTyM8BNgi9w4SrIYOAF4OzuIGmka8fWnu60DhgIrW/BekiQ1ggWwJEmSpBKsAYYQawDVfc4k7hm9GfhscpYSvQl8B/gG8Hpylqa5FRhI990xWWdbA5cRq6HHdfxazTINODs7hBpnCXBoC99vMXElherhnewAkqSNswCWJEmSlO1FYDBOW3aXrYGfE+X6jcCuuXGK9SRRQN6SHaTBXgAGAZdnBylUb2A0UZJcB/TPjaMWmwQcjw+nqDWeAHZOeN9pxP3wLyW8t7pms+wAkqSNswCWJEmSlOkxYD/gmewgbag/cANRsI8l1snq/Y0jPnBekB1EAFxMTJ0tzQ5SqJ7ACGAuMBU4KjeOWuhu4oGphck51N4mEH/O/pP0/k8C++NGCEmSNokFsCRJkqQMS4GzgMOAV5OztJshwP1EOTQc6JEbp2iLgEOAi7KD6P9MAwYAt2UHKdxQ4EHgKeCM5CxqjbnE3e2XAmuTs6i9LAGOAEZlBwFWEBshzgVeTs4iSVItWQBLkiRJaqUVwBigH7GOWNXoSdzv+yxwH/Cl3Di1MAnYB5ieHUSdWg18GzgZWJWcpXT7EH+mlxNfY534b29vAD8D9iC+l7oWWptiJfFQXl/g4eQsG5oI7A6MxwcGS+MdwJJUOHf1S5LUOpcQH8hJUpO8REwrPQT8iVjrp+oMAEYCpwFbJmepixXEZPSU7CDqku2AW4Ejs4PUyB3A74G/ZAdRS3wR+DKxWWN3YJvcOCrYW8T1EPcA1wD/zo3TJYOIzQeHA3sC26emabZtcTpbkopmASxJUuuUWADfBlyfHUIfyU5AL2AZMSEllWYFMY2q6vUkJiJHAAclZ6mbKcSaXKeI6mskcBXwiewgNfI88e+9G4lJPzXD5kQRvFV2EKXrS1wH8QSxLr6d9AB2I8rIdjaV8r7vWQBLUuEsgCVJap0SC+ArgB9nh5AkfSj9ibvwTsMP9LtqFfAD4JbsIKrE7sQ08ODsIDU0mZgKLm3NqySpc68BvbNDbKAP8cCnJKlQ3gEsSZIkSeXanFhXPJ1YpX0ulr9dNQX4HJa/7eQ5Yvr9wuwgNXQysZJ/ATCaWK0tSZIkqc1YAEuSJElSeYYSa/pXADcAX8iNU0srgWHA14DlyVnUPcYDewAzsoPU0K7AOGAp8ACxWaBXaiJJkiRJlbEAliRJkqQyHAhcTZSVU4FTiPt+1XX3AAOINcFqb+9OA18ArEvOUldHExPyy4GbO34tSZIkqcYsgCVJkiQpzw7ARcCzwEzintptUxPV23KiOD8Op36b5mpgb+Cx7CA11ouYmn8AWAJcSaxPlyRJklQzFsCSJEmS1Fp9iWnFvxMly+VYslThJuL3cXJyDuVZABwGnAmsTs5SdzsAPyQeTnkGGEMU7JIkSZJqwAJYkiRJkrrfZ4gyZQawGJgAHJyaqH0sAo4AzgBWJWdRGSYB/YE7s4O0iQHAJcC/gLnApcB+qYkkSZIkbZQFsCRJkiR1j37EeudZREl5JTAoNVH7GU9M/T6cHUTFWQGcCBzb8XNVoz9wMfAkcf/yOOL+ckmSJEkF+Xh2AEmSJElqI0d1vIYAA5OztLOZwHBgdnYQFW8qsCfwS+Cc5Cztph8wuuO1CLiHeBjjQeDNxFySJElS41kAS5IkSdJHNxA4uuN1KNAzN07be52YPrw2O4hq5TVgJLEaehKwT26ctrQz8P2OF8B04AGiDJ6eFUqSJElqKgtgSZIkSfrwtgOOIQrfo4A+uXEa5XbgPGBZdhDV1kxgX2AUMBbolRunrR3c8RpDPLjxMOsL4fl5sSRJkqRmsACWJEmSpM4dBAx+z2u33DiNtBj4LvBQcg61j/HAHcBE4CvJWZqgN3BcxwtgKTADeLzjxyeAtTnRJEmSpPb0XwAAAP//7N1pqKZlAcfhXyshLc6U0big7QtYFm0mrWpRCtlmGkVf2iPaUcyKFouKNoiyIiJbKEuzIlJyItoss7B9scGtRslwokylPtSH5z3MKUYbnTPv/b5nrgtuzjsLhx/DfDp/nvsxAAMAAEzu2X8Pvg8fm0N1SvX26vrRIaw7l1ZHV8dUH2i6wpj52NT0737Mqt/7edMYvDIM/2pAFwAArBsGYAAAYE903+qQpneBPrRp8N17aBGrnVO9vNoyOoR176zq7OrkpvdLM8YDZ+eFs19f2zQG/7RpHL5w9hUAANgJBmAAAGC9e3jT2LtyHph3fy6qy6tXV2eMDmGPcn3TAPzJ6mPVE8bmUO1VPX52Vvtp0xi8+vx9vmkAALD4DMAAAMB6cPemK5zvNft879nng0dGcZO8o+nKZ+8CZZQt1eHVsU3XQm8am8MOPGR2Vru4+nX1u9nnLbPz+/mmAQDA4jAAAwAAi+4u1YbZuWt1n6axd+Xca1waa+D06qRc98ziOL36WvW66sSmp1FZXHefnaN28GeXtH0Q3lL9odpabZudP88nEQAA5ssADAAArKU7N/0gfu/qtqvObW7k17dv+8C7cdXnDdUd55vPHH2nem11wegQ2IHrqrdVp1ZvrV4yNoeb6aDZOfxG/s41bR+Er171eVvT9dL/rP41+7r68/9+vb66sulJZAAAGMoADAAA3Fx7Nf1Q/UnVoU3XLt9haBHL4KLq9dVXRofATriqemn1/qYryp85Nofd4Pazc8Aafs/Lq99W51bfqH6xht8bAAD+r1uODgAAAJbO/auzqn9UX61e3vRORuMvN2Zr9YKmK7yNvyyb31fPqh5VnTe4hcV3QHVk9a7q59VlTVeKAwDAXBiAAQCAnbVP9dHq19VTB7ewPP5UvaLar/rE4BbYVec1jcBPrH4wuIXlcUD1nuri6vjBLQAA7AEMwAAAwM54QtMTcC8aHcLS+GPT0+H7Vx8a3AJr7ZvVYdUR1fcGt7A8Dqo+V3296dppAADYLQzAAADA//OaanO19+gQlsJl1cuannj78OAW2N02V49ueh/6dwe3sDyeUv24aRAGAIA1ZwAGAABuzHuq946OYClcWb20OrD6yOAWmLdvVY9peiL4J4NbWA73a/q/cu/RIQAArD8GYAAA4IY8p3rd6AgW3lXVa6tN1amDW2C0zdVDq6OrCwe3sPg2VmdXdxodAgDA+mIABgAAduTQ6rOjI1ho26o3NF1h+r6xKbBwvl49uHpW9ZvBLSy2e1RnjI4AAGB9MQADAAA74ofR3JBrqrc3Db/vqK4dWgOL7UvVA6rnVxcPbmFxHV69YnQEAADrhwEYAAD4X29sus4XVrusOqHar+n/yN/G5sBSOa3pSc/jqh8ObmExvaXaMDoCAID1wQAMAACstql66+gIFsoPqmOrA6t3Z/iFXfGFpiv2H1Z9fnALi2VD9ebREQAArA8GYAAAYLWXjA5gYXy26R2mh1VfHNwC680F1fFNT9S/s7p6bA4L4pXVXqMjAABYfgZgAABgtaeNDmCoq6q3VftWz60uHJsD697W6qRq/+rF1W/G5rAAjhgdAADA8jMAAwAAKw6qDh4dwRA/qp5X3bV6U3XF2BzY41xXfax6QPX46syxOQx0zOgAAACWnwEYAABYcdToAObutKZrnh9ZfWZwCzD5dvWMpuuh31VtG1rDvD15dAAAAMvPAAwAAKzYf3QAc3FFdXK1T/X8XPMMi2prdWK1sXpR9bOxOczJ3arbjY4AAGC5GYABAIAVdxkdwG51bvX0pvf7nlL9ZWwOcBN8vDqkekTTk/usb/uODgAAYLkZgAEAgBX7jA5gzf21+mB1n+rI6stjc4BddH7Tk/t3rk6oLh6bw26y3+gAAACWmwEYAABYsXF0AGvm/KYrY/etXlVdNDYHWGNXV++u7lE9rTp7bA5rzBPAAADskluPDgAAABbGrUYHsEt+WX2h+kx1ydgUYI7Omp2N1bHVcdVjhxaxq24zOgAAgOVmAAYAAFheFzWNvqflKV/Y011dnTo7d2sago9rem8wAACwBzEAAwAAK24xOoCd8qemp3y/VF0wuAVYTFdWH5idA6vnND0dfMjIKAAAYD4MwAAAwIp/jw7gBl1afXF2zh/cAiyXS6t3zs5B1fHVs6sHDWwCAAB2IwMwAADAYrq8afA9vfrR4BZgfbik7WPwPZuuiH52dfDAJgAAYI0ZgAEAABbHL6uvzc55g1uA9W1Ldcrs3Ld6enVUddjIKAAAYNcZgAEAAMY6p2nwPavp/b4A8/a7tj8ZvKE6enaeVN1pYBcAAHAzGIABAADm64rqm9WZs6/Xjs0B+C/bqk/PTtURTWPwE6v7j4oCAAB2ngEYAABg9/pr9e3q3Gpz9duhNQA3zbmzU7VvdWR1eNMwvGlUFAAAcMMMwAAAAGvr+ur7TWPv5ur8sTkAa2Zr9anZqemJ4COaBuHH5bpoAABYCP8BAAD//+zdy4uNcRzH8Q87YkUR5TYkLIiy4b/U2PkHLGQhyZ6kXEouuU+55bYwxG4snt80x3SEZszveX7P61Xfns7MLD67s3h3zgjAAAAAK/MhXfC9PvEEGIOH5c6U18eSnJq4XZV2AQDAqAnAAAAA/+ZBfg2+T+rOAeiNu+Vmy+sdSU5nKQifqLQLAABGRQAGAAD4vUdJbpe7VW6+6iKA4XiT5Hy5JNmQ5Gi6EHy8PI/WmQYAAO0SgAEAADp3k9zLUui9k+Rb1UUAbfme5Ea5SSfzaxA+kmTj2k4DAIB2CMAAAMCYfE/3qd4H5e6Xp69xBqjnZrlJu9OF4MMTz0NJNq/tNAAAGB4BGAAAaNGjJM/Shd0XSZ4meVyeAPTfXLnLy36+O8nBJPuT7E1yIMlMkn3xqWEAAEgiAAMAAEvW1R7wFz4l+bDs3qWLBM/TRd9X1dYB8L8thuGrU363PV0MnkmyJ8m2JFuSbJ24nWuyEgAAKhKAAQCARQu1B0xxNslsko9J3lfeAkC/vSt37Q9/tylLQfhSulAMAADNEIABAIA+m0v3P3oBYLV8LfcyyY+6UwAAYPWtrz0AAAAAAAAAgNUhAAMAAAAAAAA0QgAGAAAAAAAAaIQADAAAAAAAANAIARgAAAAAAACgEQIwAAAAAAAAQCMEYAAAAAAAAIBGCMAAAAAAAAAAjRCAAQAAAAAAABohAAMAAAAAAAA0QgAGAAAAAAAAaIQADAAAAAAAANAIARgAAAAAAACgEQIwAAAAAAAAQCMEYAAAAAAAAIBGCMAAAAAAAAAAjRCAAQAAAAAAABohAAMAAH22UHsAAE3r4/tMHzcBADAgAjAAANBn62oPAKBpn2oPmKKPmwAAGBABGAAAAICxelt7wBSvaw8AAGDYBGAAAAAAxupN7QFTCMAAAKyIAAwAACzydcsAjM3L2gOWmU/yufYIAACGTQAGAAAWLdQeAABr7ErtActcrj0AAIDhE4ABAAAAGKs76dfXQF+sPQAAgOETgAEAAAAYswu1B0zwCWAAAFZMAAYAAABgzGZrDyjOJflSewQAAMP3EwAA///s3U/IZXMcx/H3k5HMlMZ/ipomNbOSiRI2ykKRfztRFrPxp8iK7EZGsbGxmNmIIixlsGFtgaXMINP4XzQmMjN2j8W9MtRD0/Pce+6c+3rVb3Hr3u/3szzdT+ccBTAAAAAAy+xQ9erQIao9QwcAAGAcFMAAAAAALLs9A+9/ofpu4AwAAIyEAhgAAFhkq0MHAGApHK6eHmj3kWrvQLsBABghBTAAALDIVoYOAMDS2FO9Needx6vbqmNz3gsAwIgpgAEAAABg4r7q0znuu6c6OMd9AAAsAQUwAAAAAEycrG6uPpzxnuPVHdX7M94DAMASUgADAAAAwN+OVjdVL89o/tfVtdU7M5oPAMCSUwADAACLbHXoAAAsrd3V/dWPGzhzf7Wr+nwDZwIAwD8ogAEAgEW2MnQAAJba69X26qnqt3XMebvaUT1cHduAXAAAsCYFMAAAAACs7Y/query6s5qX3Xkf35zvDpQPVJtq+6qvphZQgAAOMWmoQMAAAD8B4+ABmBRnGhS6h6Yft5cnT89W6uTTe7u/esAAMAgFMAAAMAi8whoABbVien5fuggAABwKo+ABgAAAAAAABgJBTAAAAAAAADASCiAAQAAAAAAAEZCAQwAAAAAAAAwEgpgAAAAAAAAgJFQAAMAAAAAAACMhAIYAAAAAAAAYCQUwAAAAAAAAAAjoQAGAAAAAAAAGAkFMAAAAAAAAMBIKIABAAAAAAAARkIBDAAAAAAAADASCmAAAAAAAACAkVAAAwAAAAAAAIyEAhgAAAAAAABgJBTAAAAAAAAAACOhAAYAAAAAAAAYiU1DBwAABvXk9ADzt1qdrH6pvq3eq/YOmqhWBt4PAGeCi6rbq2ur7dOzrfq1Olx9VR2qPqg+GibiulxfPV5dXV1anVedPWgiAABOiwIYAACGsVJtnp4rqhuqZ6qfqzerx4aLBgD8y5Ympejd1XVrfOfc6rLqxunnZ6uj1bvVi9UnM864HjurV6prqnOGjQIAwHp5BDQAACyWi6tHq9+r3XPevTrnfQBwJnioyZ29e1u7/F3LhdUD1cfVG9WVGxtt3S5ocqfyZ03u/FX+AgCMgAIYAAAW05bqperLauvAWYaklAZgKDuqg9W+6pINmHdv9U31xAbM2ggPVj9Vt+Q1EMDpcY0OsOAUwAAAsNiuqn6odg0dZCD+kAZgCLc2eX/vzhnMfr56bQZzT8f+6Tlr4BzAmck1OsCC+xMAAP//7N1ZyKV1HcDxL2VQZtqmUmJFGS6YNyZBealkmm2QhXoRYQsUliBStmBetBCBYUIXRhcN2KpmJS0XFZEUpWAJkZjZIiFpLogb5HRxRsjxdWayc87/ec77+cBhYBj+/+/cvOe85/c8/8cAGAAApu9ZLZ4bePqK9/FFDgAsjnz+YXXgCvc4q/pVdcAK93gyN7S4+xcAgA1lAAwAAPPwtOqq6hUr3MNRbgBsdye3OPJ5HV5TfXNNez3mm23fU0UAALYNA2AAAJiPp7e4awcAWL6jW1xstU5vqD69pr3Ord6+pr0AABjIABgAAOblwOqXoyPWyF3JAKzLNdWzB+z70RbPHF6lo6pLVrwHsH34jA4wcQbAAAAwP6/d9doOPJcYgHU4vzpi4P5fWvH638l7KrA8fp4ATJwBMAAAzNPXRwcAwIY4uPrk4IYjqg+saO3Tq2NWtDYAABNkAAwAAPN0eHXK6Ig1cLwcAKv24eo5oyOqT6xo3ctWtC6wffmMDjBxBsAAADBf540OWAPHywGwameODtjl0Op1K1j38BWsCWxvPqMDTJwBMAAAzNd2eQ4wAKzKUdXLRkf8lzcveb2LlrweAAAzYAAMAADzdUB17OiIFXO8HACr9KbRAbtZds8ZS14PoHxGB5g8A2AAAJi3k0YHrJjj5QBYpSNHB+xm2T0vWvJ6AOUzOsDkGQADAMC8HTU6AABm7NDRAVt46RLX2n+JawEAMBMGwAAAMG8vHx0AADN2yOiALRy+xLWescS1AACYif1GBwDANvLo6ABgIy3zi2tHuQGs3yHVC6rnVw9X/9r1umdk1DbywtEBWzhsiWt5bwdWwTOAASbOABgA1seXeMAq3L3EtXyRA7B6x1anVW+sTtzDv7un+nH1g+ra6s7Vp21LUzwdb5l37T7aNP+PwLw9PDoAgD0zAAaA9blrdACwkf46OgCAffKa6ou7/twXz63O2PWqurz6eHXH8tPYYA9XzxodAWych0YHALBnrgAEgPVZ5l16AI+5dXQAAHv00urK6lft+/B3K+dUt1Wfy0CPfXf/6ABgIz0yOgCAPTMABoD1+dvoAGAj/WR0AABP6qTqxuqtS1rvmdUF1S+qQ5e0JpvNSSHAst04OgCAvTMABoD1uam6d3QEsFEeqq4bHQHAli5ucZHOQStY+/jq+uqYFazNZtkxOgDYONeMDgBg7wyAAWC9/KIELNNvRgcAsKUd1SdWvMdh1a+r41a8D/N2SbVzdASwUa4eHQDA3hkAA8B6+UUJWKZLRwcA8ARXVGetaa8Dqu+1mruM2Ry3jg4ANsZfqhtGRwCwdwbAALBeV+YLGGA57qy+NToCgMe5onrnmvd8SfXtNe/JvJw7OgDYGJ8dHQDAvjEABoD1+8joAGAjvG90AACPs6P1D38fc1J13qC9mb5rq9tGRwCz9+fqy6MjANg3BsAAsH7fqm4cHQHM2t9anCgAwDSs89jnJ3NR9bzBDUzXu0YHALP3sdEBAOw7A2AAGOPs6sHREcAsPdriTi8ApmHEsc9bObC6eHQEk/Xz6rujI4DZ+n6L9zsAZsIAGADGuKk6c3QEMEvvqG4eHQFANfbY5618sDp4dAST9ZbqT6MjgNn5XXXG6AgA/jcGwAAwztXVhaMjgFn5fPXt0REAVNM49nkrrx8dwKQdUd0/OgKYjdurU3OCGcDsGAADwFifqd49OgKYvJ3V+dUFo0MAqKZz7PNWThsdwOQdXv19dAQweddXJ7QYAgMwMwbAADDeV6vXVXeNDgEm6ZHqxOoLo0MAqOprTXf4W+4AZu/uaTEEvnZ0CDBZ36heXf1jdAgAT40BMABMw3XVkdWlo0OAydhZ/ag6tMXPCADGu6I6e3TEXjyvxXsH7M1pLS5muG90CDAZf6hOb9oXOgGwDwyAAWA67qrOrV5ZXTW4BRhnZ/X76qjqlBZ36QAw3pSPfd7di0cHMBvfqA6qLqoeGJsCDPTH6pzqmOr7g1sAWAIDYACYnluqt1X7t7gq/7IWz965d2QUsDKPtrjz5rrq/S0+ox9X3TwyCoDHmdPwt+qw0QHMzqeqZ1evqi5v8YzgR4YWAat0W4tB74eqI1pcfPqVkUEALNd+owMAgCf1YIvncv33s7kOanGH8AFDiliGk6sLR0fs5u7q4tER29Dt1U+rO0eHALBHO5rX8Ld8VuSpu6l6z25/d0J1fPXM9edsa0dX7x0dsZsHWlykzDztbPE7yC2jQwBYPQNgAJiXe6vfjo7g/zLFO3Luqy4ZHQEAEzS3O38f88/RAWyU3+x6sV6nNr0B8L+rn42OAAD2zhHQAAAAAE801+Fv1R2jAwAAgHH+AwAA///s3blNHkAUhdHbGBRARuSIRqiACgicYktEpNADDfxC5EbC5A4dgMQiNrHozbw5p4Kbf3ozAjAAAADAY0eZN/4myZ/qAQAAQB1PQAMAAADcm/nyN0kuktxUjwAAAOq4AAYAAAC4NXv8TZKz6gEAAEAtARgAAACgR/xNBGAAAFieAAwAAACs7ld6xN/rJKfVIwAAgFr+AAYAAABW1uXyN0kOqgcAAAD1XAADAAAAq+oUf2+SHFaPAAAA6gnAAAAAwIp+p0/8TZL9JP+qRwAAAPU8AQ0AAACsptPlb3L7h/HP6hEAAMAYXAADAAAAK+kWf8+T7FWPAAAAxuECGAAAAFjFcZIf1SO+0CbJTvUIAABgLAIwAAAAsIKTJLvVI77QJsl2kr/VQwAAgLF4AhoAAADormv8va4eAgAAjEcABgAAADoTfwEAgKUIwAAAAEBX4i8AALAcARgAAADoSPwFAACWJAADAAAA3Yi/AADAsgRgAAAAoBPxFwAAWJoADAAAAHQh/gIAAMsTgAEAAIAOxF8AAIAIwAAAAMD8xF8AAIA7AjAAAAAwM/EXAADgAQEYAAAAmJX4CwAA8IQADAAAAMxI/AUAAHiGAAwAAADMRvwFAAB4gQAMAAAAzET8BQAAeIUADAAAAMxC/AUAAHiDAAwAAADMQPwFAAB4BwEYAAAAGF23+HsZ8RcAAPgmAjAAAAAwso7xdyviLwAA8E0EYAAAAGBUXePvVfUQAACgLwEYAAAAGJH4CwAA8AECMAAAADAa8RcAAOCDBGAAAABgJOIvAADAJwjAAAAAwCjEXwAAgE/6DwAA///s3bGKXVUUgOG/sJAUFgEJiPaiYGFlIRqEAQ2CVcRG8BWsJC8gNgpWPoKYYqKFCLYWVlqrGRQfQHs7iztpJAMjc87Z9+z5Prjc5s7Zq/9nryMAAwAAAMdA/AUAAFiAAAwAAACMJv4CAAAsRAAGAAAARhJ/AQAAFiQAAwAAAKOIvwAAAAsTgAEAAIARxF8AAIAVCMAAAADA1sRfAACAlQjAAAAAwJbEXwAAgBUJwAAAAMBWxF8AAICVCcAAAADAFsRfAACADQjAAAAAwNrEXwAAgI0IwAAAAMCaxF8AAIANCcAAAADAWsRfAACAjQnAAAAAwBrEXwAAgAEEYAAAAGBp4i8AAMAgAjAAAACwJPEXAABgIAEYAAAAWIr4CwAAMJgADAAAACxB/AUAADgCAjAAAABwVeIvAADAkXhi9AAAAAAMdad6pXq6unn++af6q/q7+qP6pvpz1IAcvfvNFX9/rW4n/gIAADslAAMAAFw/71XvV29UT17i959Xv1QPqk87xGGoQ/y9O3qIBYm/AADA7lkBDQAAcH2cVD9VX3a4+XuZ+PvI89W96vfz7//zt8zptLni71niLwAAMAEBGAAAYH43qq+r76uXr/isp6qPq4fVq1d8Fvs149pn7/wFAACmIAADAADM7Vb1Y/XOws99tvqh+nDh53L83PwFAAA4YgIwAADAvF6sfq5eWvGMzzrcBuV6+Co3fwEAAI6aAAwAADCnmx1WPj+zwVl3z89ibqfVu6OHWJCbvwAAwJQEYAAAgDk9aJv4+8hJIvDMTpvr5u9Zbv4CAACTEoABAADm80n12oBzT6pvB5zLuu43V/x9mPgLAABMTAAGAACYywvVRwPPv5ObwDM57bDiexZnHf45QvwFAACmJQADAADM5YvRA2Qd9CysfQYAANghARgAAGAebzVm9fPjWAe9b9Y+AwAA7JQADAAAMI8PRg/wH9ZB75O1zwAAADsmAAMAAMzj7dEDPIZ10Pti7TMAAMDOCcAAAABzuF3dGD3EBUTgfRB/AQAAJiAAAwAAzOFY3v17kZPqu9FDcKHZ3vn7W+IvAABwTQnAAAAAc3hu9ACX8GZuAh+jGd/5+3riLwAAcE39CwAA///s3U+LXmcdxvFrIyS2Ev+UgrZUFFyI1GoTtYk6Pg0ZoVpwka1vpbhx6ztpV03NQoKRJJrG0KQ2InbiLgjWUupCE0RoF8PQYXzuyfw5T373febzeQXfxcxz4Fzn3McADAAA9OxT1QEDeao6YI8cB90Xxz5z1J2oDgAAgKkZgAEAgJ59ozpgIF+qDtiH9SS/ro5gdsc+b8T4y/48k+Sz1RFLfFQdAADA2AzAAADAlv9VByzxreqAgTyoDtinl+JN4EpzPPZ5LcZf9uf56oCG/1YHAAAwNgMwAACw5R/VAUt8vTpgIP+sDjgAx0HXcOwzbOp1AH6vOgAAgLEZgAEAgC1/qQ5oOFUdMIhRBwMj8KNl/IVP9DoA/7U6AACAsRmAAQCALX+qDmhwDPTe/K064BDWk/ymOuIImNs3f9+N8ZfD6XEA/jD+pgEAOCQDMAAAsKXXAfi56oBBjP4W7bkkv62OmLE5fvP3RzGUcXBPJvlidcQSN6sDAAAYnwEYAADYslEd0OAN4L25mc03x0a2iBF4FRz7DP/vZHVAQ68PYwEAMBADMAAAsN2N6oAlvl0dMJA3qgMmsEhyKcmx4o65eDXzGn83YvxlGj0e/5wkb1cHAAAwPgMwAACwXY9vHj2W5KvVEYP4VXXARM4muVgdMQMXkpyvjpjQ3SRrMf4yjV4H4B6vwwAADMYADAAAbNfrjWfHQO/NrSSvV0dMZBHHQR/GhSQ/rY6YkGOfmVqvR0Dfrg4AAGB8BmAAAGC7XgfgU9UBA/lFdcCEFjECH4TxF3b3hSRfro5Y4k51AAAA82AABgAAtnunOqDhTHXAQG4l+WV1xIQWMQLvh/EXHm5RHdDQ60NYAAAMxgAMAABs90GSe9URS3y3OmAwryR5rTpiQosYgffC+At784PqgAYDMAAAkzAAAwAAO/V4A/p4kuerIwbz8yR/rI6Y0CLJpSTHijt69WrmNf5uxPjL6ny/OqDh7eoAAADmwQAMAADs1OMAnCSnqwMG8yDJepK3qkMmdDbJxeqIDl1Icr46YkJ3k6zF+MtqHE/yneqIhl6vvwAADMYADAAA7HSzOqDBd4D371/ZHE3nNAIv4jjo7Rz7DPvzQnVAw/tJ/l4dAQDAPBiAAQCAnd6sDmjwBvDBGIHny/gL+9fr8c9XqgMAAJgPAzAAALDTvSTvVUcs8ZUkT1RHDMoIPD/GXziYXgfgXh++AgBgQAZgAABgmd9XBzT8sDpgYEbg+TD+wsEZgAEAmD0DMAAAsEyvN6IdA304RuDxGX/h4L6Z5DPVEQ29XncBABiQARgAAFim1xvRvb65NRIj8LiMv3A4i+qAhjtJ7ldHAAAwHwZgAABgmevVAQ1nkjxeHTEDRuDxGH/h8NarAxp6veYCADAoAzAAALDM/SR/ro5o8B3gaRiBx2H8hWm8WB3Q0OupGwAADMoADAAAtPR6Q7rXG/gjMgL3z/gL01hL8lh1REOv11sAAAZlAAYAAFpuVAc0nK0OmBkjcL+MvzCdXo9/vp/kneoIAADmxQAMAAC09PpG0sn4DvDUjMD9Mf7CtHodgHu91gIAMDADMAAA0HI7yYPqiIZz1QEzZATuh/EXpvW5JN+rjmi4Xh0AAMD8GIABAIDdXK0OaPAd4NUwAtcz/sL0er5mXKkOAABgfgzAAADAbi5XBzT0fDN/dEbgOsZfWI0fVwfs4nfVAQAAzI8BGAAA2M3l6oCGZ5N8vjpixozAj57xF1an1/+tG0n+XR0BAMD8GIABAIDdXEvyn+qIhvXqgJkzAj86xl9Yna8lebo6oqHH3yMAAGbAAAwAADzMteqAhp9UBxwBRuDVM/7Car1cHbCLnn6LAACYEQMwAADwMJerAxp+Vh1wRBiBV8f4C6vX8wB8tToAAIB5MgADAAAP08NQtsyJJKerI44II/D0jL+wep/O5m9Xj/4Q3/8FAGBFPgYAAP//7N1vyF51Hcfx982U1tztmsxqd4KrrGgPtFmxzaAI7I+6NcucW27NLMpCpw/qiQ+EijAkqKSIICp0WOpmYzo1rJAUV2lpFFNJ2IbOwLK0Ms3I9eA4HWzXOfc51++c7+865/2CPbt/3/OB6b3rOp9zfj8LYEmSJElVdgHPRYcYIec3u/qmzyXwKzu+ruWv1I2cjwrI9eEqSZIk9YAFsCRJkqTZ+GV0gBEsgLvV1xL4Z3RXAlv+St3J+d+IO6MDSJIkqb8sgCVJkiTNRq5vKp0MzESHGJg+lsCn0U0JbPkrdSvn/9/uiA4gSZKk/joqOoAkSaplAXASMB0dZEI8D+wD9kcHOcRUdIAjOBa4LDqEGllA8fd3H/Cjlq91Z8vzx7EG+E50iIE5WAL/Ajg1OEsqB0vg04FnW5hv+St1azmwKDrECHd3cI3XUPyenkfxWXicoxwWvTjv6AS5NHtvjQ5wBHMods7QZDpA8fvgkeggkqT2WQBLkpS3D774513AG4GFsXEm1nPAXuAB4HZgJ/DXyECZWQh8PTqExnYdxU2d54EHga8C1yec/yvgX8D8hDNTWYUFcARL4Nmz/JW6l/P2z23sqvF5YC1FaXgMeT50qMk3j3x3hVE9+yi+M/yU4jvyQ7FxJEmp+WFQkqT8LAGuBM4G5sZG6bVdwBUUN/q7tAG4tuNrargOAL8GViaatw34SKJZqR0D/Ds6xEAtoF8lMMA9pCuBLX+lGPcDb4sOMcJKigerxrWM4mGvNyWYJWnY9gDfAK6ODiJJSsMzgCVJysdCii9ce4B1WP62bSXF2Wu30u32agc6vJY0BawAXiDNzZxbE8xoy+nRAQbMM4FHs/yVYpxIvuXvk4xf/i6meFDld1j+Skrj9cA3Kd4EXhOcRZKUgAWwJEl5WAE8DFwaHWSAzgB2A5+LDiK1aAq4hOKm8zh2JMjSlnOiAwycJfDhLH+lOOdFBygx7sNUa4BHSbe7hyQd6i3AdmALPpQuSRPNAliSpHgbKbYjPj46yMB9G/h+dAipZccB/wXe2XD9Xyi21MzRh6MDyBL4EJa/Uqx10QFK7Bxj7VUUxcycRFkkaZTzKXYamIkOIklqxgJYkqRYlwPXRIfQSz4B3N7yNaZani9VOYriXOC3N1w/zo3rNk1TvNGvWJbAlr9StDdQnI2bq6afNa8DvpAyiCRVWAbcC5wQHUSSVJ8FsCRJcVYBX4kOocN8gOIs5rZ4BrByMEVRAjeR8znAH40OIGDYJbDlrxRvQ3SAEndR/I6sazOwPnEWSZqNGYpjYJoeiSFJCmIBLElSjJOBG6JDaKRLgU3RIaSWzQH+0WDdLprdvO7CudEB9JIhlsCWv1Iecv4M12QXjffR7sOJklRlGcUuBJKkCWIBLElSjG34BG3ufojnHan/poEtDdbdkjpIItMUN8qVhyGVwJa/Uh5OodgCOldNCuCb8AgRSfHOpjgXWJI0ISyAJUnq3sXASdEhNCtfiw4gdeBjDda4DbRmawglsOWvlI910QFKPA78seaabwHzW8giSU1cFR1AkjR7FsCSJHVrIfCl6BCatfXAiugQUsumgPtrrmnyBlNXLIDzc7AEvjc6SEKnAbcBP6Ff5e+fgHdj+avJlfP5vzsarPls8hSS1NwMcEV0CEnS7FgAS5LUrU0UJbAmx2XRAaQOnFLz558G7mkjSALHAe+NDqHDPE2xPXef3gR+D8V2iH3xCEX5++foIFJDy4ETokOUqPvw1Hfxvp2k/FwSHUCSNDt+kJQkqVt9ulE8FKujA0gdmAI211zT5E2mrqyNDqAj6uN20H3hts/qg43RAUo8A/y85ppVbQSRpDEtovjMIEnKnAWwJEndmaZ4W0iTZR7w/ugQUgfqFsDXt5IijfOiA2gkS+D8WP6qL3Le/nkn8GzNNTNtBJGkBNZEB5AkVbMAliSpO6dGB1BjZyScNZVwlpTSkpo/vxf4ffoYSSwEzokOoZEsgfNh+au+OBdYEB2ixLaaP395KykkKY2U348lSS2xAJYkqTuLogOosSUJZ3kGtHI1p8Gauje0u7QpOoBKWQLHs/xVn1wQHaDCzTV//s2tpJCkNJZGB5AkVbMAliSpO8dGB1Bjr0s4y/8O1Cc5F8CrgVdHh1ApS+A4lr/qk0XAmdEhSmyn/vbPr20jiCQldHR0AElSOQtgSZK6k/O2dCqXsgCeTjhLSq3uede7gYfbCJLI+ugAqmQJ3D3LX/XNhdEBKmxtsMadgyTlbm50AElSOQtgSZK645ufk2sm4Sy/KCtnKxqsuTF5inTcBnoyWAJ3x/JXffTJ6AAVdjRY86rkKSQprVdEB5AklbMAliSpO1PRAdTYEwln7Us4S0rtPw3W5LwN9DI8o2xSWAK3z/JXfbScvM/L3Qn8s8E6vzdIyp29giRlzl/UkiRJ1fYnnPVgwllSan9rsOYBYG/iHCnlvjWoXmYJ3B7LX/XVBdEBKuT8kJQkSZJ6zAJYkiSp2uMJZ/0h4SwpFzlvA/3x6ACqxRI4Pctf9dVcYEN0iArbowNIkiRpmCyAJUmSqu1OOGs/8ELCeVIOtkYHKHE8cFZ0CNViCZyO5a/6bC0wPzpEiTuAv0eHkCRJ0jBZAEuSJFXbkXjeQ4nnSdF+AzwWHaLEZ6IDqDZL4PFZ/qrvLooOUCHnh6MkSZLUcxbAkiRJ5Z4E7k4888eJ50k5uDY6QInVwOLoEKrNErg5y1/13VJgZXSICjdEB5AkSdJwWQBLkiSVu6mFmV9uYaYUbUt0gAq+BTyZLIHrs/zVEFwcHaDCVuCp6BCSJEkaLgtgSZKkcle2NPeuluZKUXYD90WHKPHp6ABqzBJ49ix/NQTzgE3RISpcEx1AkiRJw2YBLEmSNNr3gD0tzT4fONDSbClKzttALwY+FB1CjVkCV7P81VBspCiBc/UUcHN0CEmSJA2bBbAkSdJoX2xx9qPAbS3OlyLkfr6120BPNkvg0Sx/NSSbowNU8O1fSZIkhbMAliRJOrILgcdavsZZwDMtX0Pq0hPALdEhSpwJnBgdQmOxBD6c5a+GZDmwNDpEBQtgSZIkhbMAliRJOtzVwA86utY7gP91dC2pC7nf+P5UdACNzRL4ZZa/GpqLogNU2AP8NjqEJEmS9H8AAAD//+zdX+hfdR3H8Rdk0EqSmkWWotRSghURdNNFTMpSqpuKMC2NRkXZX11/tpVBF65prlzOmuUoJQMVvLAsstQoCMKLKCILQiEwyvy5OXNeRHVxfkPX1u+cbb9z3ud8z+MBXwa/i995Xv0Y39f5nGMABgA41I+TfGLA692f5Px4HzCL49Y0A91YGYAXgxHY+Mv8rE3yvuqIFtdXBwAAQGIABgB4ut1Jziu47m1J3prkXwXXhj7cUh2wgheluemC6ZvzCGz8ZY4uqQ7oYOxPwQAAYCYMwAAAjYtS+1jBO5OcmWRvYQOslpuqA1psrg5g1cxxBDb+MkdrknyyOqLFz5I8VB0BAACJARgA4AdJzso4BqsHkjwvyZ54LzDT9oskD1ZHrOBVSc6ujmDVzGkENv4yV+9P83+kMftudQAAABxkAAYA5uqXSTYkeVuSP9WmHGZjkhcmuTvJv4tb4FiN/T2In6kOYFXNYQQ2/jJnm6oDWjyWcdxMCAAASQzAAMDiW0ry5yT3Jbk5yQVJ1qb5Ev3nhV1tlpK8Ickz0jTftfyzJ+N0MNMw9gH43DQngVkcizwCG3+Zs/OTnFEd0WJPdQAAADzdCdUBAECp7Uk+Vx1Bq+8vf1gs/6kO6NkjSW5J8q7qkBVsSvP+bxbHwRH47iSvKW5ZLcZf5m5rdUAH11YHDOD+JK+ojoCZ2pfkudURAEyLE8AAAEBfvlEd0OK9SV5SHcGqW6STwMZf5u6cJOurI1rck+ZpMwAAMBoGYAAAoC/3phmwxuxT1QH0YhFGYOMvTON97WO/2QkAgBkyAAMAAH3aVR3Q4kNJTqqOoBdTHoGNv9A8xv2N1REtHk5ya3UEAAD8LwMwAADQp+9UB7Q4McmHqyPozRRHYOMvNLZUB3RwfXUAAAAciQEYAADo096MfwS+NMma6gh6M6UR2PgLjZcneUd1RAe7qwMAAOBIDMAAAEDfxv5+xBck2VgdQa+mMAIbf+Epl1cHdHBHkr9URwAAwJEYgAEAgL79OsnvqyNabK4OoHdjHoGNv/CU05O8pzqig7Hf3AQAwIwZgAEAgCFcUx3Q4sVJLq6OoHdjHIGNv3CordUBHTyY5EfVEQAA8P8YgAEAgCF8L8lSdUSLLdUBDGJMI7DxFw51SpIPVEd0MPabmgAAmDkDMAAAMIQnkuyqjmhxZpJ3VkcwiDGMwMZfONxnqwM62J9kd3UEAACsxAAMAAAMZewDcJJ8sTqAwRwcgX9XcG3jLxzu5CQfrI7o4LokB6ojAABgJQZgAABgKH9L8u3qiBbrk5xXHcFg9iXZkGFHYOMvHNllSdZUR3SwozoAAADaGIABAIAhTeGL889XBzCopSSvT/LTAa513/K1jL9wqLVJPlod0cGNSf5eHQEAAG0MwAAAwJD+kOSH1REtXpfk3OoIBrU3yTlJvtzjNW5K8tokf+3xGjBVlyc5sTqig6urAwAAoAsDMAAAMLQpfIF+ZXUAJTYneXtWd6RdSrIxyUWr+DthkZyR5OPVER38JMlvqyMAAKALAzAAADC0e5L8pjqixSuTXFgdQYnbk7w0yZYkjx3H73kiyRVpxq09x58FC+uK6oCOpnDzEgAAJDEAAwAANa6qDuigz8cBM25PJtmWZgj+WJI7l3/WxV1JLk3ysiRbk+zvIxAWxPok766O6OCPaU4AAwDAJJxQHQAAAMzSzUm2Jzm1OmQFp6Z5LOnO6hDKPJLk2uVPkmxIclaaYXhdkmemGYYeWP73V2lO/gLdTOXv61ROKQMAQBIDMAAAUOeajP8k8BeS3JDkn9UhjMK9yx/g+L05ydnVER08lOTG6ggAADgaHgENAABU2ZXk0eqIFicn+XR1BMAC+kp1QEfbqwMAAOBoGYABAIAqB5LsqI7oYFOS51dHACyQC9O8/3fs/pHkW9URAABwtAzAAABApa8n2V8d0eI5Sb5UHQGwIJ6VZFt1REdXpblZCQAAJsUADAAAVNqXZGd1RAeXJFlXHQGwAC5Lclp1RAd7k1xXHQEAAMfCAAwAAFS7OtM4YfW16gCAiTslyZbqiI52JHm8OgIAAI6FARgAAKj2aKZxyuotSd5UHQEwYduSPLs6ooPH07yiAAAAJskADAAAjMH26oCOdlUHAEzUq5NcXB3R0c40j4AGAIBJMgADAABj8HCmMa6uS/KR6giACfpmdUBHB5J8tToCAACOx38BAAD//+zdzaunZR3H8fdWnSTBQAmxKIkoKBAKwiBwIUEPtIloUeEMWJg9jFATYTrhQ9g0oKGhllZTU5E9ULQwiCJq1a4iCMSoJAzMsiddtjhto999POd8f/eZ1+sveK+vz31flwEYAADYFrdPB2zo1urC6QiAFXlH9drpiA3dWz05HQEAAM+FARgAANgWf6oenI7YwEXVzdMRACtyejpggU9NBwAAwHNlAAYAALbJbdMBGzpeXTEdAbACN1WXTkds6K78/QsAwCFgAAYAALbJY63nnchT0wEAW+6y6mPTERv6dztX/AMAwOoZgAEAgG1zsnp2OmIDb6neOB0BsMUeqM6bjtjQqfz9CwDAIWEABgAAts0T7VzDuQb3tZ5xA+Agva26ZjpiQ09Vd05HAADAXjEAAwAA2+iO6unpiA1cVt08HQGwZY5U905HLHBb9a/pCAAA2CsGYAAAYBs93Xr+xvpo9bLpCIAtcmt1yXTEhv5cnZ6OAACAvWQABgAAttXp6i/TERt6cDoAYEu8svrgdMQCH58OAACAvWYABgAAttWzred65ddVR6cjALbAF6cDFvhd9YXpCAAA2GsGYAAAYJvdU/1xOmJDp6qLpyMABt1QXTkdscBHpgMAAGA/GIABAIBtt5brOZ9ffXo6AmDIJdXt0xEL/Kp6eDoCAAD2gwEYAADYdmeqX09HbOg91eunIwAGPFAdmY5Y4MPTAQAAsF8MwAAAwBrcOB2wwJnqvOkIgAP0rupN0xEL/KD60XQEAADsFwMwAACwBj+svj8dsaHLcxU0cO64tPrsdMRCH5oOAACA/WQABgAA1uL4dMAC11dXTUcAHICz1YXTEQucrh6djgAAgP1kAAYAANbi0eoz0xELfKV1vYcJsNS11RumIxb4a3XLdAQAAOw3AzAAALAmn2znAH8NLq/unI4A2CeXVndPRyx0ovrHdAQAAOw3AzAAALAmf2/nAH8t3lddPR0BsA/OVhdMRyzwm+r+6QgAADgIBmAAAGBt7m/nIH8tvpSroIHD5brWdfVz7XyQAwAA5wQDMAAAsEbXTwcs8MLq1HQEwB55cXV6OmKhb1U/nY4AAICDYgAGAADW6CftHOivxXXVNdMRAHvg29X50xELHZ8OAACAg2QABgAA1urG6YCFzlQXTUcAPAd3VK+ejljotuoP0xEAAHCQDMAAAMBa/b46OR2xwAuqh6YjAHbpqurEdMRCj7czAAMAwDnFAAwAAKzZLdVj0xELvLW6djoCYKGLq29OR+zCseqZ6QgAADhoBmAAAGDtjk0HLHR39ZLpCIAFvl5dMh2x0MPVI9MRAAAwwQAMAACs3Y+rL09HLHBB9Y3pCIANfaC6ejpioX9WN0xHAADAFAMwAABwGNxY/W06YoErq09MRwD8H6+o7pqO2IUT1RPTEQAAMMUADAAAHAZPVsenIxY6Wb1mOgLgfzi/+s50xC78orpnOgIAACYZgAEAgMPioern0xELfbWdkQVg2zxQXTEdsQtrexceAAD2nAEYAAA4TI5OByz00naGa4BtcrR653TELpyqfjkdAQAA0wzAAADAYfLb6tbpiIXeXr13OgLgv15efX46Yhcez9vqAABQGYABAIDD56bqsemIhT5XvWo6AjjnHam+Nx2xS8eqZ6YjAABgGxiAAQCAw+jd0wG78N3qedMRwDntbDtX06/N16pHpiMAAGBbGIABAIDD6GfVfdMRC72oOjMdAZyzrq/ePB2xC09V75+OAACAbfIfAAAA///s3UvILGQdx/Hv2kKPiaXGoQsVlnSwQAiCcFNSmNLFC3kEDReVlBZBRaFdKGxVglQQJmGKRVpwOF7TbkYF1SaELuSiUqzItKxcthgjwrycmff0f2fm89nM9ruZ2fzmeR4DMAAAsKneX903HXGIzqzeMx0BbJ191VXTEUt6Z4sRGAAAeIwBGAAA2FSPtJ5XQV9ZnTIdAWyNPa3vu7+3VF+bjgAAgN3GAAwAAGyyO6svT0cs4cbq6OkIYCtcXz1vOmIJD1UXTkcAAMBuZAAGAAA23SXVH6cjDtHe6sB0BLDxrqhePx2xpHdXf5iOAACA3cgADAAAbLqHq7dPRyzh1dUXpyOAjXVW9YHpiCXdVX1lOgIAAHYrAzAAALANDlZfnY5YwkXVpdMRwMY5ufV9O/fv1fnTEQAAsJsZgAEAgG3xrurB6YglfKY6bToC2BjHVjdPR6zgkur+6QgAANjNDMAAAMC2eLC6eDpiSV+vXjYdAWyEg9Xx0xFL+kF19XQEAADsdgZgAABgm9xQ3TgdsYRnVre2OLkHsKxrq1OmI5b0UHXudAQAAKwDAzAAALBtLqx+Nx2xhL0tTu4BLOPiav90xArOq34/HQEAAOvAAAwAAGybv1VnT0cs6ZTquukIYO2cVl01HbGCL7Te7xYDAMD/lQEYAADYRj+qPjIdsaS3VR+bjgDWxstbz6vv/+3X1XunIwAAYJ0YgAEAgG31yep70xFLuqzFVdYAT+a51R3VM6ZDlvRo9abHPgEAgKfJAAwAAGyzc6q/TEcs6UvVa6cjgF3ryOpb1XOmQ1bwvuqe6QgAAFg3BmAAAGCbPVCdPx2xgm9U+6YjgF3pQHXidMQKbq4+Px0BAADryAAMAABsu4Ot78jwjOq26rjpEGBXuaF6zXTECh6ozpuOAACAdWUABgAAWFwz+qvpiCUd12IEXtc3PoGd9dEW19uvs7Oqh6YjAABgXRmAAQAA6tHqzdU/p0OWtK+6aToCGHdBdfl0xIo+Xt09HQEAAOvMAAwAALBwT3XRdMQKXlddOx0BjDmzumY6YkV3tP4DNgAAjDMAAwAA/Mf11eemI1awv/V9zxhY3qnVN6cjVnR/de50BAAAbAIDMAAAwH+7uPrpdMQK3tHiDVBgO5xSHZyO2AFvrB6cjgAAgE1gAAYAAHi8M6s/T0es4PLqkukI4LA7qbq9OmI6ZEUXVT+bjgAAgE1hAAYAAHi8+6q3Tkes6LPVBdMRwGHzwuquas90yIqur66ejgAAgE1iAAYAAPjfvlN9aDpiRddUp09HADvuhBa/Uc8e7ljVz6vzpiMAAGDTGIABAACe2BXVgemIFR2oTp2OAHbMMdW3q73TISt6OH9QAQCAw8IADAAA8OT2V/dOR6zoYPWq6QhgZXuqO6qXTIfsgLOr305HAADAJjIAAwAAPLm/VmdU/5gOWcER1a3VK6dDgKXtafHm7yumQ3bAZdXt0xEAALCpDMAAAABP7Z7q/OmIFR3VYjzaNx0CHLIjW1z7vAnj7y3VJ6YjAABgkxmAAQAAnp6bqk9NR6zoqBYj0kunQ4Cn7cjqu9XJ0yE74Jctrn4GAAAOIwMwAADA0/fhFu/prrNntRiTXjwdAjylTRp/H67eUD0yHQIAAJvOAAwAAHBozq1+MR2xomNbjEovmA4BntDRbc74W/WW6t7pCAAA2AYGYAAAgEPzSHV6i9Ns6+z4FuPS3ukQ4HGOrr7f5oy/l1Z3TkcAAMC2MAADAAAcut9U50xH7IC91V0txmBgdzimxffypOmQHXJddeV0BAAAbBMDMAAAwHJuqz44HbEDXtRibDphOgTo+OruNufk70+q/dMRAACwbQzAAAAAy/t0ddN0xA44sfph3gSGSc+vftzi+7gJ/lSdMR0BAADb6F8AAAD//+zdbczWVR3A8a/DTYmngYGGwqBWgg2RHhgVD/FgBmlQFjWTaixdMLHcMmdWoD2xMp2I0nJubuVakYW2KVN0JA8BRaGY2UzZsEgrkkBA30QvDhuK3Hf3w/mf33X9/9/PG9+d88VxX2P37zrnOACWJEmSpN5ZAOyMjshgJLAFODc6RGqgcaThb53e5L4Q+Ht0hCRJktREDoAlSZIkqXcOAR8E9kSHZDAM2ABMig6RGmQisIn081cX84Ft0RGSJElSUzkAliRJkqTe2wPMAA5Eh2QwkPQm8MzoEKkBpgPrgQHBHTldAayOjpAkSZKazAGwJEmSJOXxZ2BOdEQmfYF1wNzoEKnGLiR92aJvdEhG3wNui46QJEmSms4BsCRJkiTlsxG4ODoiozXAwugIqYYuA34VHZHZT4AvR0dIkiRJcgAsSZIkSbn9AlgcHZHRncA10RFSjXwb+GF0RGbrgEuiIyRJkiQlDoAlSZIkKb9VwPLoiIyWkwbBknrnHuDa6IjMngDmRUdIkiRJOsYBsCRJkiRV41pgdXRERguB+4E3RIdIbWgQsAH4aHRIZruBWcDB6BBJkiRJxzgAliRJkqTqzAceiY7IaDawCTgjOkRqIyOBbcDk6JDM9gIzgBeiQyRJkiS9lgNgSZIkSarWXOCx6IiMziMNs8ZEh0htYALwW+Bt0SGZHQIuAJ6JDpEkSZL0eg6AJUmSJKlaL5FOyT0dHZLRCGALMC06RGphFwAbgWHRIRWYDWyPjpAkSZJ0Yg6AJUmSJKl6/wamUq/TcoOA9cClwR1SK1oErKWeb2bPAR6NjpAkSZLUMQfAkiRJklTG88B04LnokMx+BHwrOkJqIbcCt0dHVOQjwAPREZIkSZI6d3J0gCRJCjUSeH90hHpkBNCPNFDaF9yi7usTHdCBs6n3Z8IB0jXM+wMbniNdm7wVGBrYkdtXSG8Df4J05bXURP2BXwKzokMq8mlgTXRERkOAKcDo6JATGBQdcAJDgC9GR6jHDpLeI98RHVKBscDp0REVa8Xf4R+JDpAkde6k6ABJkhpkKbAsOkKSxIvAX0hvc64FHgxoGHt0/yEBe1fpKeAi0v9fqUmGAw8DY6JDKnI5cEd0RC9dRrqyfjwwAG/FU3O9AvwVuB+4GdgVm9Mt7yK9r34+8FbSZ69iDAP+GR0hSeqYA2BJkspxACxJrekw8HPgOspez3wusIl0arBO9gMXA+uiQ6RCJpC+TDIsOqQiS4CV0RE9NJr0+T4BfwcmdeRF0k0eP4gO6UA/Ut/lwBuDW3SMA2BJanF+21GSJElS0/UFFgC7ge8CAwvt+zjpBMuhQvuVMhB4CLgqOkQqYC6wmfoOf5fRvsPf+4BngHfg8FfqzGBgFelU8OTgluMtAp4lDYAd/rYWP1clqcU5AJYkSZKkY64G/kQ6LVbCFmB2ob1Kuwn4cXSEVKHrSG/inhodUpGVwPXRET3wbuBl0nX0DiikrjsT2ADcHh0CDAV+Q2qp6xdsJEmqlANgSZIkSXqt4aQTfR8vtN+j1HcI/ClgK+mXylJdDABWA9+MDqnQCtLVz+3mc6TPnFOiQ6Q2toj0cxRlPPAYMCmwQZKktucAWJIkSZJe71TgZ8DiQvutBT5QaK/SJpKuu54VHSJlMJY0mPhYdEiFVgJfiI7ogaXAHXjqV8phIulpjNKmADuANwXsre45Eh0gSeqcA2BJkiRJ6thtwMxCez0ETC+0V2lDSH++pdEhUi9cAmwHRkeHVOhG2vPk74dI7xVLymcE8EjB/c4C7i24n3rHL9tIUotzACxJkiRJnbsHeHOhvdaThsCHC+1X2jLSn3FobIbUbXcCdwN9o0MqdCPpHfR2MxqHRlJVpgPfKbBPP+BBYHCBvSRJagQHwJIkSZLUuUGkwU8p60nXJdd1CDyNdCX0xOgQqQtGk/6+LowOqdgNtOfwF9IJxT7REVKNXUP1Nx8sJ12xL0mSMnEALEmSJEn/3yRgfsH9NpOGwC8V3LOkM4CtwFXRIVInPkx673dcdEjFrqZ9r2dfCIyKjpBq7iSqPWV/DnBFhetLktRIDoAlSZIkqWtuLrzfZtL7wwcK71vSTcB9pFPWUiu5lTTwGBAdUrEvka5+blcrowOkhhhH+jdJFVZVtK4kSY3mAFiSJEmSumY48MnCe24DpgL7C+9b0kXATmBydIhEuoL0SZpxGm0J8P3oiF74PPV+k1lqNbdUsOZY0r9zJElSZg6AJUmSJKnr5gbsuQOYDvwnYO9SRgAbgG9Eh6jRlpCGv014h3Ix7X96tu7vMkutZkwFa86rYE1JkoQDYEmSJEnqjtlB+/4eeC/wj6D9S/kq8DvgLdEhapTTgHXAiuiQQi6lHleuTogOkBqmD7Ag85oOgCVJqogDYEmSJEnqukHAtKC9nwQmAXuC9i/lnaRTz5+JDlEjzCT9bFX1tmWrmQfcHR2RwfnAydERUgN9NuNapwETM64nSZJexQGwJEmSJHXPqMC9dwHvOfrfOusP3AX8lDR0l6qwgnTyd1h0SCFzgHujIzJ5e3SA1FBnZVzrzIxrSZKk4zgAliRJkqTuif6F5W7SddBPBXeUMB/YCUyNDlGtnAf8kfTmbxMcJL0j/kB0SEYjowOkhhqSca2hGdeSJEnHcQAsSZIkSd0TPQAGeJ50Evjx6JACRgC/Bm4B+ga3qP3dAPwBOCc6pJD9pGvr1wd35DY8OkBqqP4Z13IALElShRwAS5JUzn+jAyRJWZweHXDUPmAKsCU6pJArSW+1vi86RG1pPPAE8LXokIL2kj4jtkeHVGBwdIDUUKdkXMsnHtrbkegASVLnHABLklTOvugASVIWe6MDXmU/MAN4ODqkkFHARjwNrO65HthBs96N3UO9bwl4ITpAaqicQ79/ZVxL5b0SHSBJ6pwDYEmSymmlgYEkqef+Fh1wnMPALGBNdEhBV5JOc06ODlFLG096Q/rr0SGF7SKdlH86OqRCz0YHSA2VcwC8J+NaKu/l6ABJUuf+BwAA///s3XvsVnUdwPG3yzaRMklTc17QRETRiQg1nfNWm2FgSFqS93tlrYvibdOmFqbTlUqBpqGTpmVemAaV98RS0DJRVERQAcNKFMEfa272x0eW6E9+t/OczznPeb829vsHzvOGh/1+z/N8zvf7dQAsSVJ5lmcHSJIKUdUPLMcCl2VHlGh74M+4GlidW7Pqd2h2SMkeBoYDi5I7Wu257ACpoYo81uiVAq+l8v03O0CStG4OgCVJKs/L2QGSpEI8nR2wDqcDx2dHlOw7wDxgv+QOVcNewLM0b9UvwFRi5W8Tbjq8LztAaqgiB8CLgJUFXk/leSI7QJLUNQfAkiSVZy7wRnaEJKlP/kOssKuyX9GcIdAa2xIDoanAprkpSrIRMAWYBeyY3JJhAnBcdkSJXgFey46QGujtgq83o+DrqRzTswMkSV1zACxJUrl8oyRJ9VaXc3YfBvYAns8OKdkxwDM0axAmGE9sCXxydkiClcDBwKXZIQnuzQ6QGqjIFcAAdxR8PZWjLq+HJanRHABLklQu3yhJUr3dmh3QA4uIs0AfSO4o2ybAdcCDwJDkFrXWQOAeYBqweW5KipeBEcDvs0OSNOnMc6kq3in4encVfD213ovA49kRkqSuOQCWJKlctwIvZEdIknrlSeo3aFlBnI17VXJHhn2I85ovyA5RS5xDPL8HZIckmQ0MI1a8N9VfiUGEpPKsV/D1XgcmFXxNtdbF2QGSpO4p+oe2JEnq2mHAb7IjJEk99iXqvVLlFGBydkSShcT2wHdnh6jP9gWuppnn/K4xDTgyO6Ii9gXuz46QGuRN4sz1Im1B/JzeoODrqngLge2zIyRJ3eMKYEmSyvdb4InsCElSj8yh3sNfgCnAgcRqm6bZDvgTcQPWVskt6p2tiOfvfpo9/D0Th7/v9QDNXgUttYN/Aj/LjlC3nJsdIEnqPlcAS5KUYyjwKNAvO0SS1KUVwJ7A/OyQggwEZgA7JXdk6QAuBSYCq5Nb1LUNgLOACTT7ddMKYCxwb3ZIBX0GmAd8NDtEaoBWrACG+P7+KPE+WdV0JzA6O0KS1H2uAJYkKcdcYHx2hCSpW8bQPsNfgEXACOp3nnFR+gHnAc8BX01u0bodDjwLnE+zh78LgD1w+PthFhDfp9/JDpHUax3AKOC17BB16h/Ez2RJUo04AJYkKc/twDnZEZKkdfoWscVou1kJHAxckB2SaGvgJuAhYJfkFq1tF+J5uRnYJrkl2x+I4e+C7JCKm0ncKCCptVp5o8XLwCEtvL56ZwkxnO/IDpEk9YwDYEmSck0Ejs+OkCR9QAcwDvh5dkiLnQ98GViVHZJob2JnjmuATZNbmm4T4nmYSzwvTTcROIjY/llduxA4FVcCS63U6uMEHyJuelna4sdR9zxG7BqzJDtEktRzngEsSVI17AVMJz74lCTlWkwMXZ7KDinRrsSW0FtlhyR7nRi6XYHnA5epH/B94qzfjyW3VMFq4CjgluyQmvoscD9xfrSkYrXqDOD324w4c3ZECY+lzt0MfC07QpLUe64AliSpGh4GBgNXZodIUoOtBi4GdqZZw1+AJ4Hdac/trntiY+AnxPnAx+amNMaJwPPARTj8hbgBZU8c/vbFI8RNBXfhamCprl4FRgKnAf9KbmmaecBoHP5KUu25AliSpOrZAbgEGJsdIkkN8RbwO+Jc9sXJLVVwJfGBq+Bp4AxidbSKNYa44WJIdkiFzCK2ZP93dkgbGUR8fx+Kn4FJRVgBfKLkx9wIOI+4Mcsds1rnWeBS4NrsEElSMXzxK0lSdfUD9gdGEecgfRIYQGyHJUnqnWXAcmLA8ggwE7g7taiavgJMBfond1TFLOC7wJzskDawJ3AVsU2v/u8S4MzsiDZ3CnA0sctDP2B94COpRVL9ZAyA32sk8f54H+J98YB3f22Y2FQ3bxKvhZcDLxGvg+8CFmRGSZKK5wBYkiSpXF8HbsyOeJ8XgYHZEZIqZyfgtne/KtwGTCC2LFbPDCbOV3aHk7W9Tpz3e2d2iKTKGUUM5qqkrDOAJUlSH3kGsCRJkiSpM88QqzVvyg6pkLHAfOCXwHbJLXWxA3AD8f/J4e/aHgOG4fBXkiRJUsEcAEuSJEmSPswq4Ajg1OyQijkBeAH4NbGdrD5oO2Ib8fnECletbTJxg8Wi5A5JkiRJbcgBsCRJkiSpK1OI8+hfyg6pmCOAp4A7iGGeYvB7LTEgPya5pYpWAYcB38gOkSRJktS+HABLkiRJkrrjb8BuwIzskAoaA8wG7gEOTG7Jsg1wDTH4PT65parmEVs+35IdIkmSJKm9OQCWJEmSJHXXG8Ao4OzskIo6ALgbmAMcktxSlkHA1cCLwInJLVU2DRhObIktSZIkSS3lAFiSJEmS1FMXAyOJ1Z76oOHA7cBzwDeBDXNzWmJ/YDrxdzwpuaXKVgDHAkcCHbkpkiRJkprCAbAkSZIkqTdmA7sS5wOrc4OAScBiYCKwZW5OIY4mtgO/Fxid3FJ1DwI7A9dnh0iSJElqFgfAkiRJkqTeegs4Ffgi8GpyS5UNAM4ClhBbAQ/LzemxAcC5wFJimLl7bk7lrQZ+AOxLPOeSJEmSVCoHwJIkSZKkvpoJDAFuyw6pgfHA48AsYFxyS1cGEyu8lwIXAZ/OzamFvwN7AJdnh0iSJElqLgfAkiRJkqQivAYcChxDnHuqddsLuAVYBJwDbJZas7bDgfuAZ4CTgQ1yc2pjIrG6e152iCRJkqRmcwAsSZIkSSrSDcS5pw9mh9TEtsCPgGXAzcB+SR1bE6t8X0nuqKMXgJHEIF+SJEmS0jkAliRJkiQVbQlx/unp2SE1896Vt98GNi7hMQ8CpgMvEef8blHCY7aT64DdgNnZIZIkSZK0hgNgSZIkSVKrXAbsCPwlO6RmBgNXAMuJFdWfK/j6nwLOBhYCM4DRBV+/CRYCBwAnAKuSWyRJkiRpLQ6AJUmSJEmtNJ847/Y0YGVySx0dRQzQnwTOoG8rdPcGpgGvAj8GBvY1rqF+CuxCrNaWJEmSpMpxACxJkiRJKsMkYAgOzXprKHAJcUbvH4nBcP9u/Ln+wCnAE8BDwPhWBTbAfGAE8D2gI7lFkiRJkj6UA2BJkiRJUlkWE9vmHktsb6ze+QKxNfSyd79+vpPfMxi4ClgKTCbOqVXvXUhsZz4nO0SSJEmSurJ+doAkSZIkqXGuB2YCvwDGJrfUWX9iJfBRxKD3RmAucBKwT2JXO5kDHEf8u0qSJElSLTgAliRJKtd62QGS2s7HgUHA28DzwFu5Od22DDgUGEdsD715bk7tbQlMyI5oIx3AD4ltt+tmGDAcWIBbrkt19k52QCeq2CRJkjrxPwAAAP//7N1/yO53Xcfxp7kSWfnjuDZczHTHjaVmrpQtFPsxf7dQ3MSaJ5zMgSLTCgsWxciIGZaFiSjMcMRUxG1EzoGyuRhGQqYihT9ya/vDjU3nmraEgvzjcwaH493OrnNf9/X53vf9eMDNOTfnnO/n9cfNget6Xe/PWwEMAACwu7y4enn1gupgdeCoP7+nUQTfUt3Y2Pu6ZNdWN1dXNnbVwmyfrN7aKFCX7szGTuKXVU+uHrPF3/nfxpXrt1YfaOyQBgAA9jATKAAAm3Wo+tvZIY5yR/XU2SGAh3Va9afVhdVjV/y39zf+3/nj6ttrzrVuz6w+WJ0zOwj70r83ytRPzA7yCPx+9YeNGwBW9T+ND1785loTAev28sYHUpbkgerxs0MAAMf2I7MDAADsM65NA1bxuOpd1Z2NPa+rlr9VT6gua0wzLv2K4H+tzq1e19hpC5vwveryxlXqSy9/f626t/qzjq/8rfrR6jeq71dXrCkXsH5LHNxZYiYAYAsKYAAAgGX6ueor1dvX9LzHN0qjLzcmipfsw40y7p2zg7DnXdO4Sn03/Kxd2yioT1rT8x7T2HP8tTU9DwAAWAgFMAAAwPK8tvpiY6fnuj2r+kL1Szvw7HV6sDGVebC6YXIW9p4vNabNDzX2Zi/dN6pX79Czz2hMQT9jh54PAABsmAIYAGCzXJsGHMvvVB/d4TOeVN1Snb/D56zDbY2cLzr8e9iOb1Vvqp5TfW5ylkfqvur0HT7jxEYpftYOnwM8cktcHbPETADAFhTAAACb5U0T4OG8uHr3Bs/7SGMieDe4qTEN/PbGtCKs6q8a064fmB1kBV+rnrihs06o/nlDZwHHtsQPji4xEwCwBQUwAADAMvxMdf2Gz/zx6pPVgQ2fux1/UT2tump2EHaNG6szG9P190/OsoqPNQrrTTqxumPDZwIAAGumAAYAAFiGjzfKl007rTEZuZt8q7q0cY3vZydnYbm+0rg6/BXV1ydnWdV51Wsmnf2U6l2TzgYAANZAAQwAADDfJdUzJp7/W9XZE88/Xl+qXlBdWP3H3CgsyHeqtzWm6m+anOV4XTP5/N+efD4AALANCmAAAIC5fqK6cnaI6n2zA2zDtY1rof8g+4H3u/dWT6/eMzvINlxWnTI5wwnVDZMzAAAAx0kBDAAAMNdF1U/ODlGdWz1vdohturI6WH1ocg4276bGxO9l1X2Ts2zXH80OcNhLZwcAAACOjwIYAABgrlfNDnCEV84OsAb3VG+ofr66bnIWdt7nGzt+X9TY+bvbHWgZHwipenT1+tkhAACA1SmAAQAA5nlc9bLZIY6wFwrgh3yhuqB6dnX95Cys363VS6rnVjdOzrJOS5n+fcilswMAAACrUwADAGzWo2YHABblvNkBjvKs6qdmh1izL1evrp5ZfWxyFrbvM9WvVC+sPj05y044f3aAo5w9OwAAALA6BTAAwGb93+wAwKKcNjvAFg7ODrBD/q16bXVW9eHJWVjdp6pfrH61umVulB31pNkBjvLY2QEAAIDVKYABAADmOXl2gC0ssZRep69Wr6tOr66enIVju6Gxz/ml1T9NzrIJSytcH1WdNDsEAACwGgUwAADAPKfMDrCFvV4AP+T26uLqp6ur5kZhC9c19jef39jnvF/82OwAWzhndgAAAGA1CmAAgM2yAxg40hNmB9jCEkvpnXRndWl1avWe6r/nxtn3rmlc031BY3/zfrPE92nOmB0A9qklro5ZYiYAYAtLfGEBALCXedMEWLr9+jrxruptjYngd1bfnRtn37mqcS33ocY13SzHo2cHgH1qiR8cXWImAGAL+/WFPQAAAGzl3ury6inVFdV9c+PsaQ82pq5PbUxh3z43DgAAwN6gAAYAAIAfdn/1jkYR/HvV3XPj7CkPNKasn9qYur5rahoAAIA9RgEMAAAA/7//qv68elr1luqOuXF2tSOnqy8//D0AAABrpgAGAACAY/t+9b7G1OqrqpunptldPl9dXJ3cmPz9z6lpAAAA9jgFMAAAAKzm76rzqrOq9zemhPlhH6meXz23unpyFgAAgH1DAQwAAADH56vVm6tTq9+tbpsbZxHubuxOPqW6qPrHuXEAAAD2HwUwAAAAbM8D1V9WB6tfrz49N84Un6sOVU+urqjumRsHAABg/1IAAwAAwPp8onpJdWb119V35sbZUQ9WH6zOrs6trpkbBwAAgFIAAwAAwE74evXW6kB1QfX3c+Os1c3V66uTqjdWX5wbBwAAgCOdMDsAAAAA7HHXHf46uXFN8sXVz84MdBy+UV3dmPj95uQsAAAAPAwTwAAAALAZ91Tvrp5d/ULjiuhvT0308L5b/U31wurp1Z+k/AUAAFg8BTAAAABs3r80rog+qbqwsTt4KT5TXVSdUl1S3To3DgAAAKtwBTQAAADMde3hrwON4vVQdc6GM9zWuOL5qkz5AgAA7GomgAEAAGAZ7qveW51bnV69o1HM7pTvVR+qfrk6ePg85S8AAMAupwAGAACA5bm9uqJRzD6/en+jIF6HW6o3VCcf/vUf1vRcAAAAFuAHAAAA///s3SFOHFAUhtFP1yBwFd0FmsAOWAbLYEd1SFAsgBUgCQugtmIm9U1IZvhzTnL981/ufQIwAAAAnLeX6r66rO46nIv+X2/VQ/Wruumw+fvna54HAADAOfEHMAAAAHwfv4/zo7qubqur6meHjd6L6r366HA++rl6ql5P8FYAAABOQAAGAACA7+ezejwOAAAA/OMENAAAAAAAAMAIARgAAAAAAABghAAMAAAAAAAAMEIABgAAAAAAABghAAMAAAAAAACMEIABAAAAAAAARgjAAAAAAAAAACMEYAAAAAAAAIARAjAAAAAAAADACAEYAAAAAAAAYIQADAAAAAAAADBCAAYAAAAAAAAYIQADAAAAAAAAjBCAAQAAAAAAAEYIwAAAAAAAAAAjBGAAAAAAAACAEQIwAAAAAAAAwAgBGAAAAAAAAGCEAAwAAAAAAAAwQgAGAAAAAAAAGCEAAwAAAAAAAIwQgAEAAAAAAABGCMAAAAAAAAAAIwRgAAAAAAAAgBECMAAAAAAAAMAIARgAAAAAAABghAAMAAAAAAAAMEIABgAAAAAAABghAAMAAAAAAACMEIABAAAAAAAARgjAAAAAAAAAACP+AgAA///s3a+r3mUch/FLJ6iDOU8Qi2GwIWoQThOGYDQs+A/YFgVtgxWjYBL/BEGDyR9Fo2AzLBhUGAyDS3NFQRm4LWzxuD3P49zn7D6vF3z7le7y5sPXAAwAAAAAAACwCAMwAAAAAAAAwCIMwAAAAAAAAACLMAADAAAAAAAALMIADAAAAAAAALAIAzAAAAAAAADAIgzAAAAAAAAAAIswAAMAAAAAAAAswgAMAAAAAAAAsAgDMAAAAAAAAMAiDMAAAAAAAAAAizAAAwAAAAAAACzCAAwAAAAAAACwCAMwAAAAAAAAwCIMwAAAAAAAAACLMAADAAAAAAAALMIADAAAAAAAALAIAzAAAAAAAADAIgzAAAAAAAAAAIswAAMAAAAAAAAswgAMAAAAAAAAsAgDMAAAAAAAAMAiDMAAAAAAAAAAi3hiOgAA2MrJ6kx1YjqEnb0yHXCAZ6r3piPYycnq2erP6vfhFnbz4nTAAfbzJjyqnquOV9erP4ZbWMfr1T/TEWztye68CTera9WN2Rx28PJ0wAGOVW9MR7CzW9Vv1eXpEAD+f49NBwAA9/Tm3e9sdbram80BAAAAHnG/Vj9V31bfVD/P5gDwoBmAAeDwOVV9UL1VPTWbAgAAACzuSvVR9fF0CAAPhgEYAA6Pver96t3pEAAAAODI+aW6UH05HQLAf2MABoDD4bXqq+78pwsAAABgyqfV+erv6RAAdmMABoB5b1efTEcAAAAA3HWpOlddnQ4BYHuPTwcAwBF3MeMvAAAAcLjsVz9UL0yHALA9F8AAMOdc9fV0BAAAAMC/uFSdrf6aDgFgcy6AAWDGq9Xn0xEAAAAA97BffTYdAcB2jk0HAMAR9X31/HQEAAAAwH28VF2ufpwOAWAzLoAB4OF7pzozHQEAAACwoQ+nAwDYnAtgAHi49qovqqenQwAAAAA2dKK6VX03HQLA/d0GAAD//+zbMS6EYRSF4SMIjdHMCnSUelGr2IFOp1PYgliCjWkswgZQ6CYyv/iT75o7z7OCU93mzfUBDABj3eY7AgMAAABskvvqAQD8jgAMAGPdVA8AAAAA+INlkovqEQBME4ABYJyjJJfVIwAAAAD+6Lp6AADTBGAAGOe8egAAAADADFfVAwCYJgADwDjL6gEAAAAAM5xVDwBgmgAMAOMsqgcAAAAAzLRfPQCA9QRgABjnuHoAAAAAwEyH1QMAWE8ABoBxfAADAAAAm+6gegAA6wnAADDOTvUAAAAAgJl0BYB/zqEGAAAAAAAAaEIABgAAAAAAAGhCAAYAAAAAAABoQgAGAAAAAAAAaEIABgAAAAAAAGhCAAYAAAAAAABoQgAGAAAAAAAAaEIABgAAAAAAAGhCAAYAAAAAAABoQgAGAAAAAAAAaEIABgAAAAAAAGhCAAYAAAAAAABoQgAGAAAAAAAAaEIABgAAAAAAAGhCAAYAAAAAAABoQgAGAAAAAAAAaEIABgAAAAAAAGhir3oAAFDqKclj9QjYUp/VA35wl+SlegRsoeckD9UjVnwk2a0eAVvqLclJ9YgVr0lOq0fAlnpPsqgeAcBm8QEMAAAAAAAA0IQADAAAAAAAANCEAAwAAAAAAADQhAAMAAAAAAAA0IQADAAAAAAAANCEAAwAAAAAAADQhAAMAAAAAAAA0IQADAAAAAAAANDEFwAAAP//7NmBDAAAAMAgf+t7fKWRAAYAAAAAAACYEMAAAAAAAAAAEwIYAAAAAAAAYEIAAwAAAAAAAEwIYAAAAAAAAIAJAQwAAAAAAAAwIYABAAAAAAAAJgQwAAAAAAAAwIQABgAAAAAAAJgQwAAAAAAAAAATAhgAAAAAAABgQgADAAAAAAAATAhgAAAAAAAAgAkBDAAAAAAAADAhgAEAAAAAAAAmBDAAAAAAAADAhAAGAAAAAAAAmBDAAAAAAAAAABMCGAAAAAAAAGBCAAMAAAAAAABMCGAAAAAAAACACQEMAAAAAAAAMCGAAQAAAAAAACYEMAAAAAAAAMCEAAYAAAAAAACYEMAAAAAAAAAAEwIYAAAAAAAAYEIAAwAAAAAAAEwIYAAAAAAAAIAJAQwAAAAAAAAwIYABAAAAAAAAJgQwAAAAAAAAwIQABgAAAAAAAJgQwAAAAAAAAAATAhgAAAAAAABgIgAAAP//7NmBDAAAAMAgf+t7fKWRAAYAAAAAAACYEMAAAAAAAAAAEwIYAAAAAAAAYEIAAwAAAAAAAEwIYAAAAAAAAIAJAQwAAAAAAAAwIYABAAAAAAAAJgQwAAAAAAAAwIQABgAAAAAAAJgQwAAAAAAAAAATAhgAAAAAAABgQgADAAAAAAAATAhgAAAAAAAAgAkBDAAAAAAAADAhgAEAAAAAAAAmBDAAAAAAAADAhAAGAAAAAAAAmBDAAAAAAAAAABMCGAAAAAAAAGBCAAMAAAAAAABMCGAAAAAAAACACQEMAAAAAAAAMCGAAQAAAAAAACYEMAAAAAAAAMCEAAYAAAAAAACYEMAAAAAAAAAAEwIYAAAAAAAAYEIAAwAAAAAAAEwIYAAAAAAAAIAJAQwAAAAAAAAwIYABAAAAAAAAJgQwAAAAAAAAwIQABgAAAAAAAJgQwAAAAAAAAAATAhgAAAAAAABgIgAAAP//7NyxbQJAEEXBRSaw3IAzUtqgM1Ovm7AbABKCRY+ZCn60wT3pBGAAAAAAAACACAEYAAAAAAAAIEIABgAAAAAAAIgQgAEAAAAAAAAiBGAAAAAAAACACAEYAAAAAAAAIEIABgAAAAAAAIgQgAEAAAAAAAAiBGAAAAAAAACACAEYAAAAAAAAIEIABgAAAAAAAIgQgAEAAAAAAAAiBGAAAAAAAACACAEYAAAAAAAAIEIABgAAAAAAAIgQgAEAAAAAAAAiBGAAAAAAAACACAEYAAAAAAAAIEIABgAAAAAAAIgQgAEAAAAAAAAiBGAAAAAAAACACAEYAAAAAAAAIEIABgAAAAAAAIgQgAEAAAAAAAAiBGAAAAAAAACACAEYAAAAAAAAIEIABgAAAAAAAIgQgAEAAAAAAAAiBGAAAAAAAACACAEYAAAAAAAAIEIABgAAAAAAAIgQgAEAAAAAAAAijtsDAIBVp5m5bI+AN/SxPeCO87gJsOG0PeCGw7gHsOVze8ANX+MmwJZXfMP/2x4AwGOH7QEA8EZ+Zua6PQIAAADgCd8z87s9AoD7fAENAAAAAAAAEPEPAAD//+3dsWpUURSF4SVWKVXwCQQbK0s7sROCWCgi+CS+gGhp7QOIIBK0sxQLQSESUAsVI2qlSbDRFGqRVBZ37mTC2TNnvg9u/7eXxWEbgAEAAAAAAAA6YQAGAAAAAAAA6IQBGAAAAAAAAKATBmAAAAAAAACAThiAAQAAAAAAADphAAYAAAAAAADohAEYAAAAAAAAoBMGYAAAAAAAAIBOGIABAAAAAAAAOmEABgAAAAAAAOiEARgAAAAAAACgEwZgAAAAAAAAgE4YgAEAAAAAAAA6YQAGAAAAAAAA6IQBGAAAAAAAAKATBmAAAAAAAACAThiAAaCdP9UBAAAAADP6Wx0AwDADMAC0s10dAAAAADCj39UBAAwzAANAO9+rAwAAAABm9Ks6AIBhBmAAaGerOgAAAABgRrvVAQAMMwADQDufqwMAAAAAZrBeHQDAZAZgAGhnI8lOdQQAAADAAa1VBwAwmQEYANryowQAAAAsqkfVAQBMZgAGgLb8KAEAAACL6FOSV9URAExmAAaAth4m+VAdAQAAADClW9UBAIxztDoAAJbQtyRXqiMAAAAARvqY5EZ1BADjeAEMAO09SLJeHQEAAAAw0s3qAADGO1IdAABL6kySF0lWqkMAAAAABjxOslodAcB4XgADQI2NJNerIwAAAAAGvE5ytToCgOm4AQwAdd4m2U1yoToEAAAA4D9fkpxP8qM6BIDpGIABoNazJJtJLlWHAAAAAOx7mb3x92t1CADTcwMYAObDuSRrSU5UhwAAAABL7X6Sa9URABycG8AAMB+eJzmd5G51CAAAALCU3iRZjfEXYOF5AQwA8+dUkttJLleHAAAAAN17l+ROknvVIQAcDgMwAMyvlezd27mY5GyS40mOJTlZGQUAAAAspJ9Jtva/zSRPkzxJ8r4yCoDD9w81a1b9UY7kWgAAAABJRU5ErkJggg==;" vertex="1" parent="UW74KRJwmyp60dVH0W7f-22">
          <mxGeometry width="53.33" height="30" as="geometry" />
        </mxCell>
        <mxCell id="UW74KRJwmyp60dVH0W7f-38" value="" style="group" vertex="1" connectable="0" parent="1">
          <mxGeometry x="89.99999999999999" y="120" width="136.75" height="40" as="geometry" />
        </mxCell>
        <mxCell id="UW74KRJwmyp60dVH0W7f-39" value="" style="whiteSpace=wrap;html=1;" vertex="1" parent="UW74KRJwmyp60dVH0W7f-38">
          <mxGeometry width="130" height="40" as="geometry" />
        </mxCell>
        <mxCell id="UW74KRJwmyp60dVH0W7f-40" value="" style="shape=image;verticalLabelPosition=bottom;labelBackgroundColor=default;verticalAlign=top;aspect=fixed;imageAspect=0;image=https://www.netpoleons.com/uploads/1/0/7/8/107892225/radware-logo-rev-02_1_orig.png;" vertex="1" parent="UW74KRJwmyp60dVH0W7f-38">
          <mxGeometry x="43" y="9.22999999999999" width="93.75" height="25" as="geometry" />
        </mxCell>
        <mxCell id="UW74KRJwmyp60dVH0W7f-41" value="" style="shape=image;verticalLabelPosition=bottom;labelBackgroundColor=default;verticalAlign=top;aspect=fixed;imageAspect=0;image=data:image/png,iVBORw0KGgoAAAANSUhEUgAAAD0AAAArCAYAAADL7YBvAAAAAXNSR0IArs4c6QAAAARnQU1BAACxjwv8YQUAAAAJcEhZcwAADsMAAA7DAcdvqGQAABUeSURBVGhD5ZrZbxxXdodPVXX13s3mIoqkJGq1NArGmHiWvCSTvCRAHvKSvzZIgCBBkMCDGcOe2I5syxpZIilKpMgme++u6qrK9zvV1GgMDzDPyZUvq+ouZ9/ubQcFzf6ftXD1fNckg6v+f7UFeZHBXmgBPAYMiFcG+cOXBug5/UoEkpLWWq4XHgzoVS1cwVhN+be/8Cx4Bg5Fvfz2Z/mwjNkKg4ItmBljET3IlyvVlBuCkgJ/1+Zc1PNZwgkct8iPQZ4D74r2kL+Rv4Ejz5dFHkTvMc02GM6D3AUg6nzjCk/EGCLiWdgSFEs2ZsxVABk7QBZdUUHPmRdhglHRFGsEy6cZv3rP+SemK3CcsybjXwVk+B84WKRWQPoVIcLlOzMLJXjBYiSHDs1UHSJwtJ7/QugI4S0AljP9Dg7bxMhoObNxkbim1F2TqzUi2schaIlIM4AIWRVi27DdimswEtokmdk8TyE4t0wb2F/JKyCEcN5FrrqavrNgatUitmZRtVa1YRXG5unUJunCFlH8+4VOiDo0hJlTHEirOVQiFPU6+zeAZWEFphljufQgUUqhMJ2j6aUbDVthdmFfHD2zF5cngEOKGi9xeCtRwmiIlkU2gNlujSyyuxu7dn/vlmVZbs/fHNnB4NTmTC6DzCKQRQCSJVzBex+uFUvmI7vZ3bHHu3cQXtW+Oz6wp28PbRK52L1JnyD1d5msLDJYWRNorBbUbHvzuv3ltYcWV2ps0CrwOuGl8GG6KDIIK+09s/N0bP/+1Sf25dmBzUK4YeHVeu0Uof6KlFO9RBh2hpazin24d98+evBntkyX9unzr+zJyUubRQlQYZqlYSFPLU1a7d2TXlkqrkT28Ppd++WDn1gvbthnL76xX7340sbRdLWKvzBXNtEVA6N0RYkhXAZWx7Dv3rxr/3jz59ZqdKyAtjIOsIOHmC+/Vn4gxxMdaZ7ZHAIXSDip5JZKq7ynMJrQFxFsgEgaXKDvBe8JROAoJSOYt6xA+xb0lHmMnGfBt1nCGj0Xeq7e5ftLJJO6JwIC0gRzyr4ESstuvmYp16InwE5Eg2gSHp4Z3zgddEnU0INdS9SKO8jE31dM8+X+wAA+F4YRVosgQCTLqjBewX+jrOwh7yHarMIhMsG80SRrqgTECtqqIDwZScQzAl7Mmqrg4AJhFpd9WT6D1Xu0BDZr1GO0U4PKyGkCXlZ/16Os9vsuPKLZe+E0Oi44yxmUAAnHzqEzTmca/4a4ClFNVpOFxLygbu28aXtp23aKNeuFa7ZOb0Vda9a71ql1bCtsW7fatLVKw9bxoWuVpvWiGmkC/5HW0EbcJCDFsV1n/Fqk4ESQq1etU29Yp9oGRsf2rGPXAvYSeGqttq1X6GHTlgh8WEFY7NsOGrbG3l5c8d6lt+LIGtXImnHX2lHPNsJ1es/W4nWrVzoWxU2LC4SknCJhYEVV9FqDR4XEoEhJUpirDFuGNSegHF6+tn46dPNU1JPxq7npEiWVeuRRBUyiePdFaedas2db3XX8qLDj6YX1ZwOLgBEQxeUOMuEA0w+RSoQmFfdlpnIXNlkjj20DRq51t6wSxnY+vbTTQd8WmJpSaQg+WR9RyOnJFaQ82IhyOsMx1PVaa3azte2WJ2twTNrnu1ZMJxVyIgAYtwVMD7KRTUM8CoDQrGVusjUIqZE+lB7mS9IREkl9WmasIIJkhUQpC/tOgVVjLqTAENOSWQMYdQUgKJjlic1Zt8QXlTkqCK5KypKG5IspXKTOoHK3SA5dATWYES3y2nm+IAZBBRYWohW5VYMg2IyaQFllDPofMk1BlmL/iq6IDkLm9s2b52jqLcSACv9esqkFoR9s3rDt3pZdjif25OgrD3Z5FW1DUgSjXlHhmzkIUpkDaGryu0wBxqyOqT/c3re9NjCmY/v69MD6yxEEIRBoII1AOxthyosaxuWJFYScAV91Uz2o2u3NXdtf37UJ9cR3rw/t7ahvlAAu7GpRsS1ofLx+C/OvudKwre8xTcoSAklJZjPMJvavX3xsT86e2zLG/PCvBKlvFi375b0P7QFp6bB/Zv/0+b948ZFXicYwrWonkgkCWQQqyoqFGopSSlPk7lXX7K8f/sweb+3bQf/U/u3ZZ/Z6fo4LQRkZQ7ZQwLCKG2leSV0ijdw9AIg1tvDxX0DHRzce2UU6sd/8z2/t+dsDsoxYwtqihu3v3LJ/uPFT6zTRNnveZ5oHX/qDNoyCQuYnBmb42IRwO8PE58XU5iSAlB6gMQwPSREZIWKBj83Zk8kUMS+VpEpPC6URnoLlqSYK8Vs682IGPaLFpc2ChU3VixnwE+bTEid9wTjGi/ElmLjg4vs8l2SDgJgQ80/0LNE2TkC0VmokfRZzQRL/zqFiwPuNukQi0GupeJmlzDB1fwpgAl3BWIxQ5B/aLjeoLhXtxTxw0aQOKHovvBQs8SkGqEOlI9KU3v0ww6IiowqUdYADI6NLq6q/WVOkvGs+9W95sqdSTBf3Bye+yr+K6IMORegQSxE8/wYeU06HYPvLe++yRl6UxDVYBqEGUuzkNaIfNTBm3Ulr1ioapCIFDwIJSKmwWRdYG59vEb1bEFQPa9ao1HnGVGiRdbDxDisbAWkmYIx0GLBO9V9I+doi13aypjW1isDTAmInJ2Uy3iyEk71E9Dp76+xr86xCaIxSVOzo0FAFH5QyX9btDXVGxJzsSpalgPz+Py9DXcpoRQKQyf2uf+S+lsNQBFKdfGDfdte3bbu9abPRxP67/zvUKS2p/mG/JCjTQWiKt8plCm4Sr+BK0Q2Esr+2bddaXRvMRtT3p36wUexWHghgSBqUFYmpQEUE2pNButURxGLK1Tu9HdvrbNokm9rR+bFdzIeWkfqksAjTX2t27f76dQSJZYBfsUV0yPDUVkwrkPElU6QkGgczG9Lhin86MGoTpo0f6wgpMHP0pZQhBkWizL8K1FiBiHcvBl3Coltmxy7sTkFdlqL5qbKDzNtNmgne5auKSURYL3lV6kpsSo1iHjY85dUIjsItKlJoluCFTGmvTpHVWGWkwDmFfqCoQQawaSJdJxyw2zyb24uLI3ubDPBtJA0kaYkpSlOOajAgpmRmivqKAWIoxhq2KfB3SBe6BTgentvZfOQhMMDfauxRIaK0KF9XHlawE2DFDMHQub7XXEOT2xAe2eH4zI44qUkpol1ClCWpFPZ4QdWVRxGBFGXBhWqEGm6wDowH61tW1QlQXIoBWZ226FVMO1uagJCzxdD+48mv7Wn/kDSAfEUYjQOoS8kbGqmQjw2ECn5yjSbIfrSzbx89+rEFnCJ+8/yJPTk/8CInpEiJyQ6K7sKmmjpD6zoAqDZv8C1LQzx27/q+p8YuvvrpoU5ZT8gAMMUCMQ86AhlBTvIiRuRe+uqDoAhNTXz77t5t+9v9n1m70VT0KK2Ip3PCfund+VJolwklcWAj8nOfKu0SsxkgmyG7pqScCYBnbJpD+ISxIZXWkBw6RspT5hTxpS0d3Gd8D2C2D9Q+vnmJ1Ywx1QkGNULjF1jXAOxDkA9ZO8JQh5qHNM/JkJZA1xjLuATnEJxaN1QtwRqtHVSm0DhkfmijcFT2YETKBQp7xKTXeqt3Nw5BBpabq4wWD1p5qvIoJSm4U/K1JJlESxtRacxiRU2KhZgyMya7cqxJGJvjf3OYmWkvEOSH8kvV1DkEygQLmA8JXBS+SBkRA1NneXWgcaASXlGC1tCg1OKBMlQeXqIY4ILbIwLvBUIV5SFWoOsg4ZPFqPaXdlWEwIbDKfkrYwyQJYlySvLVEbBOhKgnmAo5vjWnypkWVufQ26b8qqecbpakJ+baPFt81zDnOlG1obTlIa300SqRtKmUlTFOCqvxjP2dTlbQt1JRjXUKTv7OUzGB06oHzpqCEsGpQfoTjjr1Zg0TroGnDv5aAky0U+FZB1sVP4dKKBB7ZYAsxVd2tdV1kYhURYbZLKf2xcE3HkQ8SElqiuoc9RJSVIBvKkobpl1QouriQGVeA0LubO3Y7es3Xc/fvjm0l8MTqjalHXwaYUrSKkZCzF/+veBb2qjBpIdTtHujt2sf7tyzJsx+TXn59ZsXaFJWUmpJXJSxBVgIUu+K8NKkzvLK0zsb1+0X1+9ZvVp1XM6u8PO6uhgkZzkhgFyZ4mU2tkGACUpb0hxT8okAySt6eoNp3Y7o0k80+OmGaKnCJCcgTpeJTVmhAOQHfGBJuIqonrIAU7qCgpn8WCLhwMC/FnqU1U0BqgNQlXmUzH6ZKDuAJZwx1hKAS0dgP7aijArW06T+XmO9jpYuFe9sAL82lkzzVtaj1M0c1Q5HJ6SsEQBVKhBpCSYyvV0Kgg6Jf5zM7PD8tTOMZQJFEPBD6NGnTFssiCE1kajsHgc1u97ZsI1ay4+dbyYDu5iNKVERIP4ts1YloDQj+lQ0UW0zwl+YU7QXlcoW8l3dxEiROg16OuNfBTdYb63b9Saio4LU0dI3MeftimlFbxGuov1iObH/fPqpPesf++FB/1TuXQ9b9he3H9u9G3fs+PLc/vnLj5nHJOkKfsqTzjhwlJJcFyATu/qrknsj6nJC+rE92LmBJczts5ff2FPcIIHpRbjwWkFVmRcsYoLMoMv+QulNTNMlEFWIfk0FUFmV52mQSUGKGXdIWX9z+yccLYkwrHfGmfOHv6npC33rznsGo/10Zifp1E7ysZ2EY3sbTuysGNsEU0tZNWHu9XJox8mlvcmGdlqM7JRE8ia4tGPSxyEJ6VUwsNekj6Pswo7yob0yYAFvECW8kZ6oAfrRwo6zgR0VAzsgOb4CxiueL/MLYAyAN/J+EA69HwH7iG+tOwbnK2h7FbEvBBf9uIAe1rytTCwhl8vavCoUe6suXWApaAECCo6TMnEVdwGpJ6skSDMlQiqAYD5IXEdCdYmqgOCgUl60K1V4NUR0r+JnZXUnaerXhwwv5XACHPA70hgArTQuIz+aVRDlWO4pKYKOOimsli5wB1Faaq/B2VXXzC1pmbUql4NqhN/iwyvNo3ToWFojgR9giAh3LLcg5hWsFXjFvFjVrWN51xWDgFNTAkAFCqJhyBMM+FSFs6oitgp7xnWTebUGfw04Fel2s8JcRGopcHhIBrbIlLeKONXfpYEpCUgTiuQSVLfR9queOtXYenfDajpdVTiJ1ZtAiaxdbViv1QFHYa1q3ba6m7ZJ2dtudBnDpegRuHQEFZPizQX9vbZiWn4HgRDahPjd1qY9WNuz291du9XZsbudXbuzvmedWpdVEFdt2/32jt3v7Pnc3bUbdr+3b/fXbjF+037UvWUPef9g/RZ19A27zanoDvBuUlN38TNpWu6kOl5pMcdnQ8KzInen3rFW3LK7xI5NmOrBUKfG8RPmd7e2baPTs0bEaQvRteKmZbPMkpkKFtUH8IHW9dOR+LpqV74s/vXutbfKTw8MPBW8zvDVYTCVIfsqLVYB0YvqaKJmKZXDIB26hlLKU512FE2lGdXkMTsSzFSX8NKkACmnBqxd0+9MFA8Xi4l9fPSV/frkqV1yZmurwKlVrbfWc1jXNjZtPptZhm8ukoWNJxPbv3Pb+v2+zflO09Q2N3dtOBjamKOlfn8jJuMCVXu8c9f+7t6fr5S0Ol7CXJlPVplKzOoTARFJIXa5sNl8ZhPOvIvpyPIZgSGZ2unk3I4uX9sJKW2+GNsCwhfziS0XCGg6c7/dbnZss9qxKppLp3NbzBZoYm7JnMNoQgmaKbzIxFbaQNsiKJLwKHxazSbMbNrpKWft0djiGFfhdLfe6zmjMe+dVptxTB8hdTqkpgYHD6cfBUnZpMOrJhyOhya86n4xqFfPq8wOiMyfPPutvegf2UJlFIB0OaDTkaxAa3VNrVOzqjS3EnSrMvPBtZv2+M5Dyxj86uiZPTsnHaFtYdDl4GalaT+/84h1t2xEhvivl1/ar159bWMCaTXJrEJdcGNvzzbQ9ovn31mr0bBup4t2L2xjc8MuBwMLEU7I6S5dqhaPrH9+TpGTQKv0GFiXmPLh7j37+1s/tXYdTcvHGZdZK7GVmnbe9aslA0go5yAwXJCCpn17Pbu0Q/oR/RX9NWZ0zNxRQgrBBY7njE2v5kY2oArTdXLCAeF8SUqZ9+1wQcpa9Nl3AcwLm2Tlr0wrWZdmp3fdqoL7bIQ1nR37rciYFKnr3QGwTy7P7GzYt5OLM791mSC0wXzAoUiHH7RArtbPu2q6u1fVoOZ/hUfd2XemSevSIOnCT0OEevdHjpa6kfAL96syTyEfc9R7yhoVovqZNAPJVYGikjJG1WGuHwsY1UkKbev2s/w1o/BbF//dmr1KKvpvzn79CHeJy7wZnMMweRwXOp0gKEriMwQ25TlHoIOEfI/wxzxTBOV0KG3iXoAAL8dbgCoreUSCJulUjKt57lDsW90/AgQ3x8xc9zAT6urXr1QXWDqrQBrxzHXcK+YEJzGOPTMfUHgECEM3qEIX4qNlBxvaFIOqzBTqRJQP8wdQBBtd65LaVI2mOiJCWsoe5Xf5Hd3HUGru4+xJKG11+sKka5y4FEequJmujJRl3um6fPGmVwS0LCRxBAG+wgaY1CfPv7Bv377ETBOx7tFU7UpSagudQfFD1bcqwGN859HWDfto/5Ez8vnBU/uWuDCGI0lcB5de1LaPKGU/2L5t0zSxz4++Bc8BJemsvEpSQzgiTELTz0dX99ZygdIVoGM1JmHg4gow5TyCqHJY0WX/X+1/SEqr49Na55vcr/UkZUGhICl003RRf4I/X6ZEbbhUuF+R40yLGMlwgoZVaOg+WrWyJLsVt2273mb90s7xtz4wxIz+hxcRqP+9Yru5busEGGWJU9YMOdggJVxohWOFp2SLxrts5IdazolN11iqIP0HPhVNWEy70bEbtXXPEAIrWBKKmJZPr5jmSyYk2DzcS3RW9AXlmdU3MK/iXdKb8ceZ5lsESz91vv3XFb5SQXG7dTTsBQCCiVWlQZxkPJcDYq8VBKBfSdScYeHyPYL0x1hWNQfTjlmVgmK3CIVRxnVxKTgKmKG07Guu4MK0PFcoUbJLxpEQfMqGmQmWXgHg5gIDumdWva2JlIpKPqpik/jHt5CxDoBez4sQus7EWi8YeufEznxmDQZ1ryYa1JwW/WWdmk5cP9jYozUKpu7sK8GqSZw6+vsQTUyLdcVur8iuQGq+/ChHfL3E9Se0P4BRvr5r70PQ3PfX/GkY/ki7Avh++6Exb5oI7H8B1yvWcuMed4EAAAAASUVORK5CYII=;" vertex="1" parent="UW74KRJwmyp60dVH0W7f-38">
          <mxGeometry x="3" y="4.280000000000001" width="40" height="28.2" as="geometry" />
        </mxCell>
        <mxCell id="UW74KRJwmyp60dVH0W7f-42" value="WAF" style="text;html=1;align=center;verticalAlign=middle;resizable=0;points=[];autosize=1;strokeColor=none;fillColor=none;fontSize=6;" vertex="1" parent="UW74KRJwmyp60dVH0W7f-38">
          <mxGeometry x="11" y="15.72999999999999" width="40" height="20" as="geometry" />
        </mxCell>
        <mxCell id="UW74KRJwmyp60dVH0W7f-43" style="edgeStyle=orthogonalEdgeStyle;rounded=0;orthogonalLoop=1;jettySize=auto;html=1;entryX=0.5;entryY=0;entryDx=0;entryDy=0;" edge="1" parent="1" source="UW74KRJwmyp60dVH0W7f-2" target="UW74KRJwmyp60dVH0W7f-39">
          <mxGeometry relative="1" as="geometry" />
        </mxCell>
        <mxCell id="UW74KRJwmyp60dVH0W7f-56" style="edgeStyle=orthogonalEdgeStyle;rounded=0;orthogonalLoop=1;jettySize=auto;html=1;" edge="1" parent="1" source="UW74KRJwmyp60dVH0W7f-54" target="UW74KRJwmyp60dVH0W7f-2">
          <mxGeometry relative="1" as="geometry" />
        </mxCell>
        <mxCell id="UW74KRJwmyp60dVH0W7f-54" value="Cliente" style="shape=umlActor;verticalLabelPosition=bottom;verticalAlign=top;html=1;" vertex="1" parent="1">
          <mxGeometry x="-100" y="29" width="30" height="60" as="geometry" />
        </mxCell>
        <mxCell id="UW74KRJwmyp60dVH0W7f-57" style="edgeStyle=orthogonalEdgeStyle;rounded=0;orthogonalLoop=1;jettySize=auto;html=1;exitX=0.5;exitY=1;exitDx=0;exitDy=0;entryX=0.5;entryY=0;entryDx=0;entryDy=0;" edge="1" parent="1" source="UW74KRJwmyp60dVH0W7f-39" target="UW74KRJwmyp60dVH0W7f-25">
          <mxGeometry relative="1" as="geometry" />
        </mxCell>
        <mxCell id="UW74KRJwmyp60dVH0W7f-70" value="" style="group" vertex="1" connectable="0" parent="1">
          <mxGeometry x="173.75" y="300" width="147" height="80" as="geometry" />
        </mxCell>
        <mxCell id="UW74KRJwmyp60dVH0W7f-65" value="10.31.64.83&#xa;10.31.64.84&#xa;10.31.64.85" style="text;whiteSpace=wrap;" vertex="1" parent="UW74KRJwmyp60dVH0W7f-70">
          <mxGeometry x="77" y="15" width="70" height="50" as="geometry" />
        </mxCell>
        <mxCell id="UW74KRJwmyp60dVH0W7f-69" value="" style="group" vertex="1" connectable="0" parent="UW74KRJwmyp60dVH0W7f-70">
          <mxGeometry width="80" height="80" as="geometry" />
        </mxCell>
        <mxCell id="UW74KRJwmyp60dVH0W7f-66" value="" style="shape=image;verticalLabelPosition=bottom;labelBackgroundColor=default;verticalAlign=top;aspect=fixed;imageAspect=0;image=https://oracle.github.io/weblogic-toolkit-ui/images/logo.png;" vertex="1" parent="UW74KRJwmyp60dVH0W7f-69">
          <mxGeometry x="20" width="40" height="40" as="geometry" />
        </mxCell>
        <mxCell id="UW74KRJwmyp60dVH0W7f-67" value="WebLogic&lt;br&gt;Server" style="text;html=1;align=center;verticalAlign=middle;resizable=0;points=[];autosize=1;strokeColor=none;fillColor=none;" vertex="1" parent="UW74KRJwmyp60dVH0W7f-69">
          <mxGeometry y="40" width="80" height="40" as="geometry" />
        </mxCell>
        <mxCell id="UW74KRJwmyp60dVH0W7f-62" value="&lt;span style=&quot;color: rgb(0, 0, 0); font-family: Helvetica; font-size: 12px; font-style: normal; font-variant-ligatures: normal; font-variant-caps: normal; font-weight: 400; letter-spacing: normal; orphans: 2; text-indent: 0px; text-transform: none; widows: 2; word-spacing: 0px; -webkit-text-stroke-width: 0px; background-color: rgb(255, 255, 255); text-decoration-thickness: initial; text-decoration-style: initial; text-decoration-color: initial; float: none; display: inline !important;&quot;&gt;WEBAPP_GOLD_7010_vs_&lt;br&gt;10.226.0.89:7010&lt;/span&gt;" style="text;whiteSpace=wrap;html=1;align=center;" vertex="1" parent="1">
          <mxGeometry x="24" y="340.4233333333333" width="130" height="29.166666666666664" as="geometry" />
        </mxCell>
        <mxCell id="UW74KRJwmyp60dVH0W7f-81" style="edgeStyle=orthogonalEdgeStyle;rounded=0;orthogonalLoop=1;jettySize=auto;html=1;" edge="1" parent="1" source="UW74KRJwmyp60dVH0W7f-63">
          <mxGeometry relative="1" as="geometry">
            <mxPoint x="190" y="325.41999999999996" as="targetPoint" />
          </mxGeometry>
        </mxCell>
        <mxCell id="UW74KRJwmyp60dVH0W7f-63" value="F5" style="text;html=1;align=center;verticalAlign=middle;resizable=0;points=[];autosize=1;strokeColor=default;fillColor=none;" vertex="1" parent="1">
          <mxGeometry x="69.00426229508197" y="310.41999999999996" width="40" height="30" as="geometry" />
        </mxCell>
        <mxCell id="UW74KRJwmyp60dVH0W7f-73" value="10.226.0.92:80&lt;br style=&quot;border-color: var(--border-color); padding: 0px; margin: 0px;&quot;&gt;(443)" style="text;whiteSpace=wrap;html=1;align=center;" vertex="1" parent="1">
          <mxGeometry x="20" y="436.4233333333333" width="130" height="29.166666666666664" as="geometry" />
        </mxCell>
        <mxCell id="UW74KRJwmyp60dVH0W7f-74" value="F5" style="text;html=1;align=center;verticalAlign=middle;resizable=0;points=[];autosize=1;strokeColor=default;fillColor=none;" vertex="1" parent="1">
          <mxGeometry x="65.00426229508196" y="406.41999999999996" width="40" height="30" as="geometry" />
        </mxCell>
        <mxCell id="UW74KRJwmyp60dVH0W7f-80" style="edgeStyle=orthogonalEdgeStyle;rounded=0;orthogonalLoop=1;jettySize=auto;html=1;entryX=0.025;entryY=0.586;entryDx=0;entryDy=0;entryPerimeter=0;" edge="1" parent="1" source="UW74KRJwmyp60dVH0W7f-25" target="UW74KRJwmyp60dVH0W7f-63">
          <mxGeometry relative="1" as="geometry" />
        </mxCell>
        <mxCell id="UW74KRJwmyp60dVH0W7f-83" style="edgeStyle=orthogonalEdgeStyle;rounded=0;orthogonalLoop=1;jettySize=auto;html=1;entryX=0;entryY=0.586;entryDx=0;entryDy=0;entryPerimeter=0;" edge="1" parent="1" source="UW74KRJwmyp60dVH0W7f-65" target="UW74KRJwmyp60dVH0W7f-74">
          <mxGeometry relative="1" as="geometry">
            <Array as="points">
              <mxPoint x="286" y="390" />
              <mxPoint x="45" y="390" />
              <mxPoint x="45" y="424" />
            </Array>
          </mxGeometry>
        </mxCell>
      </root>
    </mxGraphModel>
  </diagram>
</mxfile>
